<svg width="24" height="24" viewBox="0 0 24 24" fill="none" xmlns="http://www.w3.org/2000/svg">
<path d="M9.489 7H6.2C5.08 7 4.52 7 4.092 7.218C3.71565 7.40969 3.40969 7.71565 3.218 8.092C3 8.52 3 9.08 3 10.2V15.8C3 16.92 3 17.48 3.218 17.907C3.41 18.284 3.715 18.59 4.092 18.782C4.519 19 5.079 19 6.197 19H17.803C18.921 19 19.48 19 19.907 18.782C20.2838 18.5902 20.5902 18.2838 20.782 17.907C21 17.48 21 16.921 21 15.803V10.197C21 9.079 21 8.519 20.782 8.092C20.5899 7.71558 20.2836 7.40963 19.907 7.218C19.48 7 18.92 7 17.8 7H14.51M9.489 7H9.552M9.489 7C9.383 7 9.324 7 9.277 6.994C9.13822 6.97836 9.00424 6.93385 8.88369 6.86334C8.76313 6.79282 8.65867 6.69786 8.57701 6.58456C8.49535 6.47125 8.43831 6.34212 8.40955 6.20545C8.38078 6.06878 8.38094 5.92761 8.41 5.791C8.43239 5.70406 8.45909 5.61829 8.49 5.534L8.491 5.528C8.543 5.374 8.568 5.298 8.597 5.229C8.73943 4.8879 8.9736 4.59295 9.27351 4.37688C9.57343 4.16081 9.92735 4.03209 10.296 4.005C10.368 4 10.449 4 10.61 4H13.388C13.55 4 13.631 4 13.705 4.005C14.0735 4.03227 14.4272 4.16107 14.7269 4.37713C15.0266 4.59318 15.2606 4.88804 15.403 5.229C15.432 5.297 15.457 5.374 15.509 5.529C15.555 5.667 15.579 5.736 15.589 5.791C15.6182 5.92754 15.6185 6.06869 15.5899 6.20536C15.5613 6.34203 15.5043 6.47118 15.4227 6.58451C15.3411 6.69784 15.2367 6.79282 15.1162 6.86335C14.9957 6.93387 14.8618 6.97838 14.723 6.994C14.6521 6.99956 14.5811 7.00156 14.51 7M14.51 7H14.448H9.55M12 16C11.2044 16 10.4413 15.6839 9.87868 15.1213C9.31607 14.5587 9 13.7956 9 13C9 12.2044 9.31607 11.4413 9.87868 10.8787C10.4413 10.3161 11.2044 10 12 10C12.7956 10 13.5587 10.3161 14.1213 10.8787C14.6839 11.4413 15 12.2044 15 13C15 13.7956 14.6839 14.5587 14.1213 15.1213C13.5587 15.6839 12.7956 16 12 16Z" stroke="#9E9E9E" stroke-width="2" stroke-linecap="round" stroke-linejoin="round"/>
</svg>
