<svg width="24" height="24" viewBox="0 0 24 24" fill="none" xmlns="http://www.w3.org/2000/svg">
<path d="M9.23 9H7.2C6.08 9 5.52 9 5.092 9.218C4.71565 9.40969 4.40969 9.71565 4.218 10.092C4 10.52 4 11.08 4 12.2V17.8C4 18.92 4 19.48 4.218 19.908C4.40974 20.2843 4.71569 20.5903 5.092 20.782C5.519 21 6.079 21 7.197 21H16.803C17.921 21 18.48 21 18.907 20.782C19.284 20.59 19.59 20.284 19.782 19.908C20 19.48 20 18.922 20 17.804V12.197C20 11.079 20 10.519 19.782 10.092C19.5899 9.71558 19.2836 9.40963 18.907 9.218C18.48 9 17.92 9 16.8 9H14.77M9.23 9H14.769C14.7993 9.00013 14.8293 8.99428 14.8573 8.98278C14.8853 8.97128 14.9108 8.95436 14.9323 8.93299C14.9537 8.91162 14.9708 8.88622 14.9824 8.85825C14.994 8.83028 15 8.80029 15 8.77V6C15 5.20435 14.6839 4.44129 14.1213 3.87868C13.5587 3.31607 12.7956 3 12 3C11.2044 3 10.4413 3.31607 9.87868 3.87868C9.31607 4.44129 9 5.20435 9 6V8.77C9 8.831 9.02423 8.8895 9.06737 8.93263C9.1105 8.97577 9.169 9 9.23 9Z" stroke="#9E9E9E" stroke-width="2" stroke-linecap="round" stroke-linejoin="round"/>
</svg>
