<svg width="24" height="24" viewBox="0 0 24 24" fill="none" xmlns="http://www.w3.org/2000/svg">
<path d="M7.50934 19.8017C9.40089 20.8902 11.6235 21.2542 13.7634 20.8261C15.9034 20.3981 17.8149 19.207 19.1422 17.4747C20.4695 15.7423 21.1221 13.5867 20.9786 11.4091C20.8351 9.23148 19.9052 7.18018 18.362 5.63703C16.8189 4.09387 14.7676 3.16399 12.5899 3.02047C10.4123 2.87695 8.25671 3.52957 6.52438 4.85685C4.79204 6.18413 3.60099 8.09565 3.17291 10.2356C2.74483 12.3756 3.1089 14.5982 4.19734 16.4897L4.20034 16.4947C4.27334 16.6217 4.31034 16.6857 4.32734 16.7467C4.34334 16.8037 4.34734 16.8547 4.34334 16.9147C4.33118 17.004 4.30765 17.0914 4.27334 17.1747L3.50534 19.4817L3.50434 19.4847C3.34234 19.9717 3.26134 20.2147 3.31834 20.3767C3.36834 20.5187 3.48134 20.6297 3.62234 20.6807C3.78434 20.7377 4.02634 20.6577 4.51134 20.4957L4.51734 20.4937L6.82334 19.7247C6.95434 19.6807 7.02134 19.6587 7.08534 19.6547C7.14158 19.6503 7.19814 19.6561 7.25234 19.6717C7.34104 19.7047 7.42588 19.7473 7.50534 19.7987L7.50934 19.8017Z" stroke="#9E9E9E" stroke-width="2" stroke-linecap="round" stroke-linejoin="round"/>
</svg>
