<svg width="24" height="24" viewBox="0 0 24 24" fill="none" xmlns="http://www.w3.org/2000/svg">
<path d="M9 17V18C9 18.7956 9.31607 19.5587 9.87868 20.1213C10.4413 20.6839 11.2044 21 12 21C12.7956 21 13.5587 20.6839 14.1213 20.1213C14.6839 19.5587 15 18.7956 15 18V17M9 17H15M9 17H5C4.75507 17 4.51866 16.91 4.33563 16.7473C4.15259 16.5845 4.03566 16.3603 4.007 16.117L4 16V15.414C4.00006 15.1488 4.10545 14.8945 4.293 14.707L4.803 14.197C4.8655 14.1347 4.91508 14.0607 4.94888 13.9792C4.98269 13.8976 5.00006 13.8102 5 13.722V10C5 8.158 5.711 6.483 6.874 5.233M15 17H19M5 3L21 19M19 12.999V10C19 8.14348 18.2625 6.36301 16.9497 5.05025C15.637 3.7375 13.8565 3 12 3L11.76 3.004C10.9758 3.02971 10.2016 3.18759 9.47 3.471" stroke="#9E9E9E" stroke-width="2" stroke-linecap="round" stroke-linejoin="round"/>
</svg>
