<svg width="24" height="24" viewBox="0 0 24 24" fill="none" xmlns="http://www.w3.org/2000/svg">
<rect width="23.9943" height="24" rx="4" fill="#D9D9D9"/>
<path d="M7.19922 8.18906C7.19922 7.95037 7.29402 7.72145 7.46276 7.55267C7.6315 7.38388 7.86037 7.28906 8.09901 7.28906H15.2973C15.5359 7.28906 15.7648 7.38388 15.9336 7.55267C16.1023 7.72145 16.1971 7.95037 16.1971 8.18906V9.98906C16.1971 10.2278 16.1023 10.4567 15.9336 10.6255C15.7648 10.7942 15.5359 10.8891 15.2973 10.8891C15.0587 10.8891 14.8298 10.7942 14.6611 10.6255C14.4923 10.4567 14.3975 10.2278 14.3975 9.98906C14.3975 9.49212 13.9947 9.08906 13.4977 9.08906C13.0008 9.08906 12.5979 9.49191 12.5979 9.98885V14.7891C12.5979 14.9548 12.7322 15.0891 12.8979 15.0891C13.1365 15.0891 13.3654 15.1839 13.5341 15.3527C13.7029 15.5214 13.7977 15.7504 13.7977 15.9891C13.7977 16.2278 13.7029 16.4567 13.5341 16.6255C13.3654 16.7942 13.1365 16.8891 12.8979 16.8891H10.4984C10.2598 16.8891 10.0309 16.7942 9.8622 16.6255C9.69345 16.4567 9.59865 16.2278 9.59865 15.9891C9.59865 15.7504 9.69345 15.5214 9.8622 15.3527C10.0309 15.1839 10.2598 15.0891 10.4984 15.0891C10.6641 15.0891 10.7984 14.9548 10.7984 14.7891V9.98885C10.7984 9.49191 10.3955 9.08906 9.89858 9.08906C9.40164 9.08906 8.99879 9.49212 8.99879 9.98906C8.99879 10.2278 8.904 10.4567 8.73525 10.6255C8.56651 10.7942 8.33765 10.8891 8.09901 10.8891C7.86037 10.8891 7.6315 10.7942 7.46276 10.6255C7.29402 10.4567 7.19922 10.2278 7.19922 9.98906V8.18906Z" fill="#918F8F"/>
</svg>
