<svg width="31" height="22" viewBox="0 0 31 22" fill="none" xmlns="http://www.w3.org/2000/svg">
<path d="M3.51568 10.3419C5.45734 10.3419 7.03136 8.02681 7.03136 5.17096C7.03136 2.31512 5.45734 0 3.51568 0C1.57403 0 0 2.31512 0 5.17096C0 8.02681 1.57403 10.3419 3.51568 10.3419Z" fill="black"/>
<path d="M26.8367 10.3419C28.7784 10.3419 30.3524 8.02681 30.3524 5.17096C30.3524 2.31512 28.7784 0 26.8367 0C24.8951 0 23.321 2.31512 23.321 5.17096C23.321 8.02681 24.8951 10.3419 26.8367 10.3419Z" fill="black"/>
<path d="M4.05036 18.7871C10.1501 22.0879 18.2022 22.0879 24.3101 18.7871C25.4766 18.1579 25.8168 16.4084 25.1849 15.2536C24.4883 13.9867 23.0302 13.6937 21.8637 14.3228C21.7665 14.3745 21.0698 14.7106 21.6207 14.4693C21.3452 14.59 21.0536 14.702 20.7701 14.8141C20.0815 15.0726 19.3768 15.2881 18.672 15.4777C17.1896 15.8655 15.6991 16.0896 14.1762 16.0896C12.6532 16.0896 11.1627 15.8655 9.68841 15.4777C8.98365 15.2967 8.287 15.0726 7.59845 14.8227C7.31492 14.7193 7.0314 14.6072 6.75598 14.4779C7.30682 14.7193 6.61827 14.3918 6.52106 14.3401C5.35457 13.7109 3.88835 14.0126 3.1998 15.2708C2.56795 16.4257 2.90007 18.1752 4.07466 18.8043L4.05036 18.7871Z" fill="black"/>
</svg>
