<svg width="24" height="24" viewBox="0 0 24 24" fill="none" xmlns="http://www.w3.org/2000/svg">
<path d="M9 9H7.2C6.08 9 5.52 9 5.092 9.218C4.71565 9.40969 4.40969 9.71565 4.218 10.092C4 10.52 4 11.08 4 12.2V17.8C4 18.92 4 19.48 4.218 19.908C4.40974 20.2843 4.71569 20.5903 5.092 20.782C5.519 21 6.079 21 7.197 21H16.803C17.921 21 18.48 21 18.907 20.782C19.284 20.59 19.59 20.284 19.782 19.908C20 19.48 20 18.922 20 17.804V12.197C20 11.079 20 10.519 19.782 10.092C19.5899 9.71558 19.2836 9.40963 18.907 9.218C18.48 9 17.92 9 16.8 9H9ZM9 9V6.12C9 4.397 10.3 3 11.904 3C12.728 3 13.471 3.369 13.999 3.961" stroke="#9E9E9E" stroke-width="2" stroke-linecap="round" stroke-linejoin="round"/>
</svg>
