<svg width="31" height="22" viewBox="0 0 31 22" fill="none" xmlns="http://www.w3.org/2000/svg">
<path d="M4.09503 10.6166C6.00634 10.6166 7.55577 8.34384 7.55577 5.54024C7.55577 2.73664 6.00634 0.463867 4.09503 0.463867C2.18371 0.463867 0.634277 2.73664 0.634277 5.54024C0.634277 8.34384 2.18371 10.6166 4.09503 10.6166Z" fill="#EFEFEF"/>
<path d="M27.0516 10.6166C28.9629 10.6166 30.5123 8.34384 30.5123 5.54024C30.5123 2.73664 28.9629 0.463867 27.0516 0.463867C25.1402 0.463867 23.5908 2.73664 23.5908 5.54024C23.5908 8.34384 25.1402 10.6166 27.0516 10.6166Z" fill="#EFEFEF"/>
<path d="M4.62126 18.9076C10.6257 22.148 18.552 22.148 24.5644 18.9076C25.7127 18.29 26.0476 16.5724 25.4256 15.4387C24.7398 14.195 23.3045 13.9074 22.1562 14.525C22.0605 14.5757 21.3748 14.9057 21.917 14.6688C21.6459 14.7873 21.3588 14.8972 21.0797 15.0072C20.4019 15.261 19.7082 15.4726 19.0145 15.6587C17.5552 16.0394 16.088 16.2594 14.5888 16.2594C13.0897 16.2594 11.6225 16.0394 10.1712 15.6587C9.47747 15.481 8.7917 15.261 8.11391 15.0157C7.83481 14.9142 7.55572 14.8042 7.2846 14.6773C7.82684 14.9142 7.14904 14.5927 7.05335 14.5419C5.90509 13.9243 4.46178 14.2204 3.78399 15.4556C3.16201 16.5894 3.48894 18.3069 4.64518 18.9245L4.62126 18.9076Z" fill="#EFEFEF"/>
</svg>
