<svg width="24" height="24" viewBox="0 0 24 24" fill="none" xmlns="http://www.w3.org/2000/svg">
<path d="M0 4C0 1.79086 1.79086 0 4 0H20C22.2091 0 24 1.79086 24 4V20C24 22.2091 22.2091 24 20 24H4C1.79086 24 0 22.2091 0 20V4Z" fill="#12A76E"/>
<path d="M5.48464 9.08173C6.17299 9.08173 6.731 8.31316 6.731 7.36509C6.731 6.41701 6.17299 5.64844 5.48464 5.64844C4.7963 5.64844 4.23828 6.41701 4.23828 7.36509C4.23828 8.31316 4.7963 9.08173 5.48464 9.08173Z" fill="black"/>
<path d="M13.7542 9.08173C14.4425 9.08173 15.0005 8.31316 15.0005 7.36509C15.0005 6.41701 14.4425 5.64844 13.7542 5.64844C13.0658 5.64844 12.5078 6.41701 12.5078 7.36509C12.5078 8.31316 13.0658 9.08173 13.7542 9.08173Z" fill="black"/>
<path d="M5.67504 11.8851C7.83801 12.9809 10.6932 12.9809 12.8591 11.8851C13.2727 11.6763 13.3934 11.0955 13.1693 10.7121C12.9223 10.2915 12.4052 10.1942 11.9916 10.4031C11.9571 10.4202 11.7101 10.5318 11.9054 10.4517C11.8078 10.4918 11.7044 10.529 11.6038 10.5662C11.3597 10.652 11.1098 10.7235 10.8599 10.7865C10.3342 10.9152 9.80565 10.9896 9.26563 10.9896C8.7256 10.9896 8.19707 10.9152 7.67428 10.7865C7.42437 10.7264 7.17734 10.652 6.93318 10.569C6.83264 10.5347 6.73211 10.4975 6.63444 10.4546C6.82977 10.5347 6.58561 10.426 6.55114 10.4088C6.13751 10.1999 5.61759 10.3001 5.37343 10.7178C5.14938 11.1012 5.26715 11.682 5.68365 11.8908L5.67504 11.8851Z" fill="black"/>
</svg>
