<svg width="24" height="24" viewBox="0 0 24 24" fill="none" xmlns="http://www.w3.org/2000/svg">
<path d="M16 9L10.667 15L8 12M3 17.8V6.2C3 5.08 3 4.52 3.218 4.092C3.41 3.715 3.715 3.41 4.092 3.218C4.52 3 5.08 3 6.2 3H17.8C18.92 3 19.48 3 19.907 3.218C20.284 3.41 20.59 3.715 20.782 4.092C21 4.519 21 5.079 21 6.197V17.804C21 18.922 21 19.481 20.782 19.908C20.5899 20.2844 20.2836 20.5903 19.907 20.782C19.48 21 18.921 21 17.803 21H6.197C5.079 21 4.519 21 4.092 20.782C3.71569 20.5903 3.40974 20.2843 3.218 19.908C3 19.48 3 18.92 3 17.8Z" stroke="#9E9E9E" stroke-width="2" stroke-linecap="round" stroke-linejoin="round"/>
</svg>
