<svg width="24" height="24" viewBox="0 0 24 24" fill="none" xmlns="http://www.w3.org/2000/svg">
<path d="M0 4C0 1.79086 1.79086 0 4 0H20C22.2091 0 24 1.79086 24 4V20C24 22.2091 22.2091 24 20 24H4C1.79086 24 0 22.2091 0 20V4Z" fill="#D9D9D9"/>
<path d="M6.24636 10.4343C6.93471 10.4343 7.49272 9.6657 7.49272 8.71763C7.49272 7.76955 6.93471 7.00098 6.24636 7.00098C5.55802 7.00098 5 7.76955 5 8.71763C5 9.6657 5.55802 10.4343 6.24636 10.4343Z" fill="black"/>
<path d="M14.5159 10.4343C15.2042 10.4343 15.7623 9.6657 15.7623 8.71763C15.7623 7.76955 15.2042 7.00098 14.5159 7.00098C13.8275 7.00098 13.2695 7.76955 13.2695 8.71763C13.2695 9.6657 13.8275 10.4343 14.5159 10.4343Z" fill="black"/>
<path d="M13.6277 12.4713C11.4647 11.3755 8.60949 11.3755 6.44364 12.4713C6.03001 12.6802 5.90936 13.261 6.13342 13.6444C6.38045 14.065 6.89749 14.1622 7.31113 13.9534C7.3456 13.9362 7.59263 13.8246 7.3973 13.9047C7.49497 13.8647 7.59838 13.8275 7.69891 13.7903C7.94307 13.7045 8.19298 13.6329 8.44288 13.57C8.96855 13.4412 9.49708 13.3669 10.0371 13.3669C10.5771 13.3669 11.1057 13.4412 11.6285 13.57C11.8784 13.6301 12.1254 13.7045 12.3696 13.7874C12.4701 13.8218 12.5706 13.859 12.6683 13.9019C12.473 13.8218 12.7171 13.9305 12.7516 13.9477C13.1652 14.1565 13.6851 14.0564 13.9293 13.6387C14.1534 13.2553 14.0356 12.6745 13.6191 12.4656L13.6277 12.4713Z" fill="black"/>
</svg>
