<svg width="224" height="34" viewBox="0 0 224 34" fill="none" xmlns="http://www.w3.org/2000/svg">
<g clip-path="url(#clip0_611_5491)">
<path d="M7.85571 34C4.28627 34 2.50401 32.5917 2.50401 29.7751C2.50401 29.3074 2.6022 28.8849 2.7986 28.5178C2.99499 28.1506 3.19138 27.7633 3.38778 27.3609C2.93116 27.0944 2.52856 26.7574 2.18487 26.355C1.84118 25.9527 1.66934 25.4346 1.66934 24.7959C1.66934 24.2275 1.78226 23.7648 2.01303 23.4127C2.24379 23.0607 2.50401 22.6834 2.7986 22.2811C2.73477 22.2157 2.67585 22.1905 2.62675 22.2056C2.57766 22.2207 2.53838 22.1956 2.50401 22.1302C1.91483 21.7932 1.3993 21.3254 0.957415 20.7219C0.515531 20.1183 0.294589 19.4645 0.294589 18.7604C0.294589 18.1216 0.441884 17.5633 0.736473 17.0754C1.03106 16.5876 1.40912 16.1299 1.86573 15.6923C1.31092 15.124 0.869038 14.5607 0.54008 14.0074C0.211122 13.4541 0.0490982 12.7399 0.0490982 11.8698C0.0490982 10.4967 0.54008 9.37012 1.52204 8.5C0.932866 8.23343 0.530261 7.83609 0.319138 7.31805C0.108016 6.8 0 6.23669 0 5.63314C0 5.19556 0.0736473 4.7429 0.220942 4.27515C0.368236 3.8074 0.589178 3.37988 0.883767 2.9926C1.17836 2.60533 1.54659 2.2784 1.98848 2.01183C2.43036 1.74527 2.94589 1.59438 3.53507 1.55917C3.89349 1.52396 4.22244 1.54408 4.51703 1.60947C4.81162 1.67485 5.09148 1.82574 5.3517 2.06213C5.87705 1.35799 6.52024 0.839941 7.29108 0.502959C8.06192 0.165976 8.87204 0 9.72144 0C10.8654 0 11.7345 0.271598 12.3236 0.804734C12.9128 1.3429 13.4038 1.87604 13.7966 2.4142C14.0568 2.04704 14.4496 1.77544 14.9749 1.60947C15.5003 1.44349 16.0895 1.35799 16.7425 1.35799C17.9208 1.35799 18.8046 1.59941 19.3938 2.07722C19.983 2.55503 20.4592 3.32456 20.8176 4.37574C21.505 4.34053 22.1433 4.43609 22.7325 4.65237C23.3216 4.86864 23.847 5.18047 24.3036 5.58284C24.7602 5.98521 25.1235 6.47308 25.3838 7.04142C25.644 7.61479 25.7766 8.23343 25.7766 8.9074C25.7766 9.71213 25.5654 10.3861 25.1383 10.9243C24.7111 11.4624 24.1907 11.8648 23.5671 12.1314C23.9256 12.6041 24.2201 13.1172 24.4509 13.6704C24.6817 14.2237 24.7946 14.787 24.7946 15.3553C24.7946 16.4317 24.5736 17.2817 24.1269 17.9003C23.6801 18.524 22.973 19.0672 21.996 19.5349C22.3249 20.1083 22.5753 20.6515 22.757 21.1746C22.9387 21.6976 23.0271 22.276 23.0271 22.9148C22.9927 23.4882 22.9534 23.8654 22.9043 24.0465C22.8552 24.2325 22.7816 24.4237 22.6834 24.6249C23.7488 24.8914 24.5835 25.3994 25.1776 26.1337C25.7716 26.8731 26.0711 27.7633 26.0711 28.8044C26.0711 29.5438 25.9091 30.1976 25.5802 30.771C25.2512 31.3444 24.8437 31.8222 24.3527 32.2095C23.8617 32.5967 23.3118 32.8885 22.7079 33.0896C22.104 33.2908 21.5197 33.3914 20.9649 33.3914C19.983 33.3914 19.109 33.1902 18.3382 32.7879C17.5673 32.3855 16.9241 31.8473 16.3988 31.1784C15.8734 30.5095 15.5003 29.745 15.2695 28.8899C15.0388 28.0349 14.9897 27.1547 15.1222 26.2494C14.1746 26.013 13.4627 25.5704 12.9865 24.9166C12.5102 24.2627 12.3236 23.4831 12.4218 22.5778L11.5872 22.779V22.9299C11.651 23.1965 11.7197 23.4429 11.7836 23.6592C11.8474 23.8754 11.8818 24.1219 11.8818 24.3885C11.8818 24.7556 11.8425 25.0825 11.759 25.3692C11.6756 25.6559 11.5037 25.9124 11.2435 26.1488C11.5724 26.516 11.8327 27.0038 12.0291 27.6074C12.2255 28.2109 12.3236 28.9 12.3236 29.6695C12.3236 31.1784 11.8916 32.2749 11.0225 32.9639C10.1535 33.653 9.0979 33.995 7.85571 33.995V34ZM3.68236 29.7802C3.68236 30.7509 4.02605 31.5053 4.71834 32.0385C5.41062 32.5766 6.49569 32.8231 7.97846 32.7929C8.34178 32.7929 8.71002 32.7325 9.09299 32.6169C9.47104 32.5012 9.80982 32.3151 10.1044 32.0686C10.399 31.8172 10.6298 31.4751 10.7967 31.0426C10.9587 30.6101 11.0422 30.092 11.0422 29.4885C11.0422 29.0861 10.9784 28.6787 10.8458 28.2612C10.7132 27.8438 10.5659 27.4515 10.4039 27.0843C10.2713 26.9183 10.0995 26.7574 9.88838 26.6065C9.67725 26.4556 9.56924 26.2494 9.56924 25.9778V25.9275C9.56924 25.8923 9.58397 25.8621 9.61834 25.8269L9.71653 25.7263C9.97675 25.5905 10.2075 25.4246 10.4039 25.2234C10.6003 25.0222 10.6985 24.7405 10.6985 24.3734C10.6985 24.1068 10.6494 23.805 10.5512 23.4731C10.453 23.1411 10.3204 22.8896 10.1584 22.7237L9.91293 22.5728C9.81473 22.5376 9.72635 22.442 9.64289 22.271C9.55942 22.105 9.52014 21.9541 9.52014 21.8183C9.52014 21.5166 9.7018 21.3657 10.0602 21.3657C10.2566 21.3657 10.453 21.4059 10.6494 21.4914C10.8458 21.5769 11.0569 21.6172 11.2877 21.6172C11.4497 21.6172 11.6706 21.592 11.9505 21.5417C12.2304 21.4914 12.4317 21.4311 12.5642 21.3657C12.7606 21.2299 12.8932 21.1343 12.957 21.0639C13.0208 20.9985 13.1878 20.9633 13.448 20.9633C13.8751 20.9633 14.0863 21.1343 14.0863 21.4663C14.0863 21.6322 14.047 21.7429 13.9635 21.7932C13.8801 21.8435 13.8064 21.9541 13.7426 22.1201C13.6788 22.2559 13.6346 22.4219 13.6198 22.6231C13.6051 22.8243 13.5953 22.9751 13.5953 23.0757C13.5953 23.5485 13.7328 23.971 14.0126 24.3382C14.2925 24.7104 14.6754 24.9618 15.1664 25.0976C15.4954 25.0976 15.8391 25.2133 16.1975 25.4497C16.3939 25.6157 16.4528 25.7766 16.3693 25.9325C16.2859 26.0834 16.2466 26.2444 16.2466 26.4104V27.1195C16.2466 27.7583 16.3595 28.3769 16.5903 28.9654C16.821 29.5538 17.1402 30.0769 17.5477 30.5296C17.9552 30.9823 18.456 31.3544 19.0452 31.6411C19.6344 31.9278 20.2874 32.0686 21.0091 32.0686C21.9567 32.0686 22.8258 31.7568 23.6113 31.1382C24.3969 30.5195 24.7897 29.7198 24.7897 28.7441C24.7897 28.1405 24.5835 27.5521 24.176 26.9787C23.7684 26.4104 23.2333 26.0231 22.5803 25.8219C22.5164 25.8219 22.3495 25.7867 22.0893 25.7213C21.8291 25.6559 21.6818 25.6207 21.6474 25.6207C21.451 25.4849 21.3283 25.3441 21.2792 25.1932C21.2301 25.0423 21.2055 24.9166 21.2055 24.816C21.2055 24.4488 21.3135 24.1722 21.5246 23.9861C21.7358 23.8 21.8438 23.5083 21.8438 23.1059C21.8438 22.437 21.721 21.8033 21.4756 21.2148C21.2301 20.6263 20.8766 20.1133 20.4199 19.6757C20.2579 19.5399 20.1106 19.4394 19.9781 19.374C19.8455 19.3086 19.7817 19.1728 19.7817 18.9716C19.7817 18.7704 19.8651 18.6195 20.0272 18.5189C20.1892 18.4183 20.3856 18.353 20.6163 18.3178C20.8471 18.2825 21.0926 18.2574 21.3528 18.2423C21.613 18.2272 21.8291 18.182 21.9911 18.1166C22.4477 17.9154 22.8356 17.6237 23.1449 17.2364C23.4542 16.8491 23.6457 16.2707 23.7095 15.4962C23.7439 15.2296 23.6702 14.8473 23.4886 14.3645C23.3069 13.8766 23.1203 13.5346 22.9239 13.3334L21.942 12.3728C21.8782 12.2722 21.8438 12.1565 21.8438 12.0207C21.8438 11.8195 21.942 11.6536 22.1384 11.5178L23.3167 11.0148C24.1023 10.5772 24.4951 9.87308 24.4951 8.89734C24.4951 7.69024 24.0679 6.83018 23.2185 6.32722C22.3691 5.82426 21.3184 5.57278 20.0763 5.57278C19.816 5.50237 19.6736 5.32633 19.6589 5.0497C19.6442 4.76805 19.6196 4.54172 19.5853 4.36568C19.4232 3.71183 19.0697 3.23905 18.5297 2.94734C17.9896 2.65562 17.3906 2.50473 16.7376 2.50473C15.7212 2.50473 14.9357 2.86183 14.3809 3.57604C14.2188 3.73698 14.1108 3.86272 14.0617 3.9432C14.0126 4.02367 13.9046 4.06391 13.7426 4.06391C13.3842 4.06391 13.1534 3.92308 13.0552 3.64142C12.957 3.35976 12.8588 3.13846 12.7606 2.97249C12.6624 2.77633 12.5299 2.57012 12.3678 2.35385C12.2058 2.1426 12.0094 1.93639 11.7787 1.73521C11.5479 1.53905 11.2631 1.37811 10.9194 1.26746C10.5758 1.15178 10.1731 1.09142 9.71653 1.09142C8.37615 1.1568 7.26162 1.64467 6.37786 2.55C6.21583 2.78639 6.098 2.9926 6.03417 3.1787C5.97034 3.36479 5.80341 3.45533 5.54319 3.45533C5.18477 3.45533 4.89509 3.33965 4.68397 3.10325C4.47285 2.86686 4.20281 2.75118 3.87385 2.75118C3.31904 2.75118 2.74459 2.95237 2.15541 3.35473C1.56623 3.7571 1.23727 4.29024 1.17345 4.95917C1.10962 5.89467 1.16363 6.50828 1.34038 6.78994C1.51713 7.07663 1.68407 7.26775 1.84609 7.36834C2.03758 7.50414 2.3518 7.63491 2.78387 7.77071C3.21593 7.90651 3.43196 8.12278 3.43196 8.42456C3.43196 8.62574 3.35341 8.78669 3.19138 8.90237C3.02936 9.01805 2.87224 9.11361 2.71022 9.17899C2.1996 9.44556 1.83627 9.78255 1.63006 10.1849C1.42385 10.5873 1.32074 11.1405 1.32074 11.8396C1.32074 12.2068 1.40912 12.6746 1.58587 13.2479C1.76263 13.8163 2.18978 14.3544 2.86242 14.8524C3.05391 14.9882 3.24539 15.1139 3.44178 15.2296C3.63327 15.3453 3.73146 15.4911 3.73146 15.6571C3.73146 15.9941 3.58908 16.1953 3.2994 16.2607C3.00972 16.326 2.78878 16.4467 2.62675 16.6127C2.30762 16.9497 2.04248 17.2414 1.83627 17.4929C1.63006 17.7444 1.52204 18.1518 1.52204 18.7251C1.52204 19.0923 1.60551 19.4695 1.76753 19.8568C1.92956 20.2441 2.19469 20.5509 2.55311 20.7873C2.8477 20.9533 3.2012 21.1645 3.60872 21.416C4.01623 21.6675 4.22245 21.9944 4.22245 22.3967C4.22245 22.5627 4.18317 22.6885 4.0997 22.774C4.01623 22.8595 3.91313 22.9349 3.78056 23.0003C3.5498 23.1663 3.3485 23.3775 3.16683 23.629C2.98517 23.8805 2.89679 24.1722 2.89679 24.5092C2.89679 25.0775 3.01954 25.4899 3.26503 25.7414C3.51052 25.9929 3.91313 26.2544 4.46794 26.521C4.6987 26.6216 4.81162 26.7876 4.81162 27.024C4.81162 27.1899 4.77725 27.3157 4.71343 27.4012C4.6496 27.4867 4.56613 27.5772 4.46794 27.6778C4.23717 28.045 4.0506 28.392 3.90331 28.7089C3.75601 29.0257 3.68236 29.3879 3.68236 29.7902V29.7802ZM9.57415 14.4852C9.57415 14.3846 9.67234 14.2337 9.86874 14.0325V11.8698C9.86874 11.6686 9.81964 11.4675 9.72144 11.2663C9.62325 11.0651 9.57415 10.8287 9.57415 10.5621C9.57415 10.2604 9.73126 10.0843 10.0406 10.034C10.3499 9.98373 10.6199 9.95858 10.8507 9.95858C11.5037 9.95858 12.1125 10.2453 12.6673 10.8136C13.2221 11.382 13.5364 12.0056 13.6002 12.6746C13.664 13.4441 13.4627 14.0728 12.9865 14.5607C12.5102 15.0485 11.9456 15.305 11.2926 15.3402C10.998 15.3402 10.6396 15.305 10.2124 15.2396C9.78527 15.1743 9.57415 14.9228 9.57415 14.4852ZM11.0471 14.1834C11.1797 14.2488 11.3073 14.284 11.4399 14.284C11.7688 14.284 12.0291 14.1231 12.2254 13.8062C12.4218 13.4894 12.52 13.1423 12.52 12.7751C12.52 12.408 12.3727 12.0559 12.0782 11.7189C11.7836 11.382 11.3908 11.2009 10.8998 11.1657C10.8998 11.3317 10.9243 11.6284 10.9734 12.0459C11.0225 12.4633 11.0471 13.1775 11.0471 14.1834Z" fill="black"/>
<path d="M34.7467 11.418C34.187 11.418 33.7255 11.3174 33.3622 11.1213C32.9988 10.9251 32.6355 10.6032 32.2771 10.1606C32.1151 10.2612 31.8745 10.3769 31.5603 10.5127C31.246 10.6485 30.8925 10.7139 30.4997 10.7139C29.8418 10.7139 29.2428 10.4473 28.6978 9.90916C28.1578 9.371 27.8828 8.76745 27.8828 8.09851C27.8828 7.66094 27.9565 7.30887 28.1038 7.0423C28.251 6.77573 28.4573 6.45384 28.7175 6.08668C28.6193 5.85029 28.5211 5.60887 28.4229 5.35739C28.3247 5.10591 28.2756 4.86449 28.2756 4.6281C28.2756 3.75798 28.5702 3.05384 29.1594 2.51567C29.7485 1.97751 30.4359 1.71094 31.2215 1.71094C31.6781 1.71094 32.1396 1.77632 32.5962 1.91212C33.0529 2.04792 33.4162 2.36478 33.6764 2.86774C34.2656 2.53076 34.8891 2.36478 35.5421 2.36478C36.3915 2.36478 37.0985 2.61123 37.6534 3.0991C38.2082 3.58697 38.488 4.25591 38.488 5.09585C38.488 5.8704 38.3604 6.43875 38.11 6.79082C37.8596 7.14289 37.4619 7.43964 36.9169 7.67603C37.0151 7.87721 37.1035 8.08845 37.1869 8.30975C37.2704 8.53106 37.3097 8.7423 37.3097 8.94348C37.3097 9.61745 37.0789 10.2009 36.6174 10.6887C36.1559 11.1766 35.5323 11.4231 34.7418 11.4231L34.7467 11.418ZM28.8697 31.8382C28.8697 31.471 28.9188 31.1843 29.017 30.9831C29.1152 30.7819 29.2477 30.5455 29.4098 30.279C28.9532 29.6754 28.6242 29.1725 28.4278 28.7701C28.2314 28.3677 28.1332 27.9805 28.1332 27.6133C28.1332 27.2461 28.2461 26.8337 28.4769 26.3811C28.7077 25.9284 28.9826 25.5663 29.3116 25.2997C28.9532 24.7967 28.6586 24.2334 28.4278 23.6148C28.197 22.9961 28.0694 22.3473 28.035 21.6784C28.0006 21.0095 28.0841 20.3556 28.2805 19.7169C28.4769 19.0781 28.8059 18.5098 29.2625 18.0068C29.0661 17.8408 28.8844 17.6145 28.7224 17.3278C28.5604 17.0411 28.4622 16.6991 28.4278 16.2967C28.3934 15.658 28.5407 15.1299 28.8697 14.7124C29.1986 14.295 29.616 13.9479 30.1217 13.6814C30.6274 13.4148 31.1773 13.2186 31.7665 13.1029C32.3557 12.9873 32.8957 12.9269 33.3867 12.9269C34.1723 12.9269 34.8498 13.0879 35.4243 13.4047C35.9987 13.7216 36.3179 14.2698 36.3817 15.0393C36.9071 15.1751 37.3637 15.3763 37.7565 15.6429C38.1492 15.9095 38.3456 16.3822 38.3456 17.0512C38.3456 17.4887 38.2131 17.8911 37.9529 18.2583C37.6926 18.6254 37.4128 19.0127 37.1182 19.4151C37.6092 19.6163 37.9381 19.9029 38.1001 20.2701C38.2622 20.6373 38.3456 21.0396 38.3456 21.4772C38.3456 21.945 38.2376 22.3674 38.0167 22.7346C37.7957 23.1018 37.565 23.489 37.3146 23.8914C37.3146 24.0574 37.511 24.2586 37.9038 24.495C38.1983 24.6961 38.5175 24.9627 38.8612 25.2997C39.2049 25.6367 39.3767 26.2553 39.3767 27.1606C39.3767 28.066 39.1803 28.6444 38.7826 28.9964C38.3898 29.3485 38.0265 29.61 37.6975 29.776C37.7957 30.0426 37.8939 30.2941 37.9921 30.5305C38.0903 30.7669 38.1394 31.0334 38.1394 31.3352C38.1394 31.9035 37.9578 32.4065 37.5993 32.8441C37.236 33.2816 36.6959 33.4979 35.9693 33.4979C35.4783 33.4979 35.0168 33.4376 34.5896 33.3219C34.1625 33.2062 33.7648 33.0603 33.4064 32.8944C32.9448 33.0956 32.5422 33.2464 32.1985 33.347C31.8549 33.4476 31.4523 33.4979 30.9907 33.4979C30.3966 33.4979 29.8958 33.3621 29.4883 33.0956C29.0759 32.824 28.8697 32.4065 28.8697 31.8382ZM32.3066 8.86301C32.5668 8.86301 32.8319 9.02898 33.0921 9.36094C33.2542 9.56212 33.4505 9.76833 33.6813 9.98461C33.9121 10.2009 34.2558 10.3065 34.7124 10.3065C35.0708 10.3065 35.3997 10.1808 35.6943 9.93431C35.9889 9.68786 36.1362 9.37603 36.1362 9.00887C36.1362 8.80768 36.0969 8.63668 36.0135 8.48579C35.93 8.3349 35.8564 8.19407 35.7925 8.0633C35.7287 7.93254 35.66 7.83697 35.5961 7.79171C35.5323 7.74141 35.4979 7.65088 35.4979 7.51508C35.4979 7.41449 35.5078 7.30887 35.5225 7.19319C35.5372 7.07751 35.6109 7.00206 35.7434 6.96685C36.6174 6.59969 37.128 6.25768 37.2802 5.94585C37.4324 5.63401 37.511 5.35739 37.511 5.121C37.511 4.65324 37.344 4.26597 37.0151 3.9491C36.6861 3.63224 36.2344 3.47632 35.6747 3.47632C35.4096 3.47632 35.169 3.52662 34.953 3.62721C34.7369 3.7278 34.5454 3.82839 34.3834 3.92898C34.2165 4.02958 34.0692 4.12011 33.9366 4.20561C33.8041 4.29111 33.6568 4.33135 33.4898 4.33135C33.1903 4.33135 32.9596 4.16538 32.7926 3.82839C32.6601 3.592 32.4882 3.36567 32.2722 3.1494C32.0562 2.93313 31.6683 2.82248 31.1037 2.82248C30.5734 2.82248 30.1511 3.00857 29.8369 3.3707C29.5227 3.73786 29.3656 4.1352 29.3656 4.56774C29.3656 4.86952 29.4245 5.11094 29.5472 5.292C29.6651 5.4781 29.8124 5.63401 29.9842 5.76478C30.2592 5.96597 30.3966 6.21242 30.3966 6.51419L30.2984 6.76567C30.2984 6.86626 30.2493 6.91656 30.1511 6.91656C29.7584 6.85117 29.454 6.95177 29.2428 7.21833C29.0317 7.4849 28.9237 7.78165 28.9237 8.11863C28.9237 8.68697 29.1054 9.08431 29.4638 9.31567C29.8222 9.54703 30.1659 9.66774 30.4948 9.66774C30.7551 9.66774 30.9514 9.6275 31.084 9.542C31.2166 9.4565 31.3442 9.35088 31.4768 9.21508C31.6388 9.14969 31.7812 9.07425 31.8941 8.98875C32.0071 8.90324 32.1494 8.86301 32.3115 8.86301H32.3066ZM30.048 31.6873C30.048 31.9538 30.161 32.1399 30.3917 32.2405C30.6225 32.3411 30.868 32.3914 31.1282 32.3914C31.4866 32.3914 31.7812 32.326 32.012 32.1902C32.2427 32.0544 32.4391 31.9035 32.6011 31.7376C32.6993 31.6722 32.7975 31.5967 32.8957 31.5112C32.9939 31.4257 33.0774 31.3855 33.1412 31.3855C33.2738 31.3855 33.3965 31.4257 33.5095 31.5112C33.6224 31.5967 33.7648 31.6722 33.9268 31.7376C34.187 31.9035 34.4914 32.0544 34.8351 32.1902C35.1788 32.326 35.547 32.3914 35.9398 32.3914C36.2688 32.3914 36.5045 32.2556 36.6518 31.989C36.799 31.7225 36.8727 31.4559 36.8727 31.1843C36.8727 31.0183 36.8334 30.8674 36.7499 30.7316C36.6665 30.5958 36.5928 30.4651 36.529 30.3293C36.3964 30.1633 36.2835 30.0225 36.1853 29.9018C36.0871 29.7861 36.038 29.6402 36.038 29.4742C36.038 29.3083 36.1019 29.1926 36.2344 29.1222C36.367 29.0568 36.529 28.9713 36.7254 28.8707C36.9856 28.7701 37.2655 28.6142 37.5601 28.3929C37.8547 28.1766 38.002 27.734 38.002 27.0651C38.002 26.4967 37.8694 26.0642 37.6092 25.7624C37.3489 25.4606 37.0691 25.2092 36.7745 25.008C36.5437 24.842 36.3473 24.6811 36.1853 24.5302C36.0233 24.3793 35.9398 24.1529 35.9398 23.8512C35.9398 23.5846 35.9889 23.3683 36.092 23.1973C36.1951 23.0313 36.3326 22.8654 36.4995 22.6944C36.637 22.4932 36.7794 22.287 36.9365 22.0657C37.0887 21.8494 37.1673 21.6382 37.1673 21.437C37.1673 21.0698 37.0396 20.8083 36.7892 20.6574C36.5388 20.5065 36.2786 20.4009 36.0086 20.3305C35.8416 20.2651 35.6747 20.1645 35.5029 20.0287C35.3359 19.8929 35.2525 19.742 35.2525 19.576C35.2525 19.41 35.3261 19.2592 35.4783 19.1234C35.6305 18.9876 35.7876 18.8367 35.9595 18.6707C36.2295 18.5047 36.4946 18.2784 36.7647 17.9917C37.0347 17.705 37.1673 17.3328 37.1673 16.86C37.1673 16.4929 37.0347 16.2666 36.7647 16.1811C36.4946 16.0956 36.1117 16.0905 35.6109 16.1559C35.3408 15.9899 35.1837 15.839 35.1346 15.7032C35.0855 15.5674 35.061 15.4166 35.061 15.2506V14.9237C35.061 14.808 35.0119 14.6822 34.9137 14.5464C34.8155 14.4106 34.6485 14.305 34.4178 14.2195C34.187 14.134 33.8581 14.0938 33.426 14.0938C32.3017 14.0938 31.3884 14.295 30.6765 14.6973C29.9646 15.0997 29.6111 15.6177 29.6111 16.2515C29.6111 16.5532 29.7485 16.8852 30.0284 17.2574C30.3083 17.6245 30.6078 17.876 30.9367 18.0118C30.9024 18.0772 30.8287 18.1728 30.7158 18.2885C30.6029 18.4041 30.5096 18.4997 30.4457 18.5651C29.9891 19.0328 29.67 19.5006 29.4883 19.9683C29.3067 20.4361 29.2183 20.9038 29.2183 21.3716C29.2183 22.2065 29.4245 22.9509 29.832 23.6047C30.2395 24.2586 30.5439 24.8018 30.7403 25.2343C30.8042 25.3701 30.8042 25.4707 30.7403 25.5361C30.6765 25.6015 30.5587 25.687 30.3966 25.7876C30.048 26.1245 29.8075 26.4062 29.67 26.6426C29.5325 26.879 29.4638 27.226 29.4638 27.6938C29.4638 28.0609 29.562 28.3728 29.7584 28.6242C29.9548 28.8757 30.1511 29.1021 30.3475 29.3032C30.706 29.5698 30.8876 29.8213 30.8876 30.0577C30.8876 30.4248 30.706 30.7266 30.3475 30.963C30.1511 31.2296 30.053 31.466 30.053 31.6671L30.048 31.6873Z" fill="black"/>
<path d="M47.6749 33.7993C46.855 33.7993 46.202 33.5579 45.711 33.07C45.22 32.5872 44.8419 32.0037 44.5817 31.3348C44.1889 31.4002 43.8305 31.3348 43.5016 31.1336C43.1726 30.9324 42.8977 30.6809 42.6669 30.3792C42.4361 30.0774 42.2643 29.7354 42.1514 29.3481C42.0384 28.9608 41.9795 28.6037 41.9795 28.2667C41.9795 27.799 42.0434 27.3514 42.1759 26.9339C42.3085 26.5165 42.4705 26.104 42.6669 25.7017C42.0139 25.3345 41.6457 24.9472 41.5622 24.5449C41.4787 24.1425 41.4247 23.8759 41.3903 23.7401C41.356 23.2372 41.4394 22.7593 41.6358 22.3067C41.8322 21.854 42.0777 21.4265 42.3723 21.0241C42.2103 20.6872 42.0286 20.3099 41.8322 19.8925C41.6358 19.475 41.5376 19.0626 41.5376 18.6602C41.5376 17.6543 41.8224 16.915 42.3969 16.4472C42.9713 15.9795 43.6341 15.5922 44.3853 15.2904H44.4835C44.5179 15.2904 44.5326 15.2753 44.5326 15.2401C44.4344 14.9031 44.3853 14.5863 44.3853 14.2845C44.351 13.5451 44.4688 12.8863 44.729 12.2978C44.9892 11.7094 45.3084 11.2165 45.6864 10.8141C46.0645 10.4117 46.4475 10.1099 46.8402 9.90876C47.233 9.70758 47.562 9.60698 47.8222 9.60698C48.4114 9.47118 48.9024 9.42089 49.2952 9.45609C49.6879 9.4913 50.0071 9.56675 50.2526 9.68243C50.4981 9.79811 50.6945 9.92385 50.8417 10.0596C50.989 10.1954 51.1118 10.2759 51.21 10.3111C52.2263 9.27 53.552 8.75195 55.1869 8.75195C56.2327 8.75195 57.1263 9.1342 57.8628 9.89367C58.5993 10.6531 59.1492 11.5283 59.5076 12.5091C59.866 11.9608 60.3128 11.5333 60.8381 11.2265C61.3635 10.9197 61.987 10.7638 62.7088 10.7638C62.8708 10.7638 63.0181 10.7789 63.1507 10.8141C63.2832 10.8493 63.4305 10.8795 63.5925 10.9147C64.0492 10.2457 64.5745 9.79308 65.1686 9.55669C65.7578 9.32533 66.4648 9.20462 67.2847 9.20462C68.3011 9.20462 69.1946 9.45609 69.9655 9.95905C70.7363 10.462 71.2519 11.2517 71.517 12.323C72.1062 12.0916 72.5726 11.9206 72.9212 11.82C73.2649 11.7194 73.7166 11.6691 74.2763 11.6691C75.2583 11.6691 76.0291 11.9558 76.5888 12.5241C77.1486 13.0925 77.4235 13.9173 77.4235 14.9886C77.4235 15.391 77.3744 15.6928 77.2762 15.894C77.2418 15.9594 77.2124 16.0549 77.178 16.1706C77.1436 16.2863 77.1289 16.3969 77.1289 16.4975C77.6444 16.5629 78.1894 16.749 78.7688 17.0508C79.3432 17.3525 79.6329 17.8404 79.6329 18.5093C79.6329 18.9771 79.5102 19.3795 79.2647 19.7165C79.0192 20.0534 78.7492 20.3854 78.4546 20.7224C79.2058 21.1247 79.7409 21.6428 80.0503 22.2815C80.3596 22.9203 80.5167 23.6546 80.5167 24.4946C80.5167 25.1635 80.4185 25.8173 80.2221 26.4561C80.0257 27.0949 79.5985 27.5978 78.9455 27.965C79.2058 28.5685 79.3383 29.2073 79.3383 29.8762C79.3383 30.2786 79.2794 30.696 79.1665 31.1336C79.0536 31.5712 78.8866 31.9786 78.6755 32.3659C78.4644 32.7531 78.1845 33.0599 77.8408 33.2963C77.4971 33.5327 77.0945 33.6484 76.6379 33.6484C75.9849 33.6484 75.4596 33.5327 75.0668 33.2963C74.674 33.0599 74.3941 32.894 74.2321 32.7934C74.0996 32.8588 73.9277 32.9694 73.7166 33.1203C73.5055 33.2712 73.0194 33.3466 72.2682 33.3466C71.517 33.3466 70.7854 33.1706 70.1815 32.8185C69.5776 32.4664 69.2732 31.8227 69.2732 30.8821C69.2732 30.4144 69.3616 29.9114 69.5432 29.3733C69.7249 28.8351 69.9115 28.3673 70.1079 27.965C69.2585 27.4268 68.6202 26.9088 68.193 26.4058C67.7659 25.9028 67.5548 25.1132 67.5548 24.0419C67.5548 23.5389 67.5695 23.1265 67.6039 22.8096C67.6382 22.4928 67.7413 22.1307 67.9132 21.7283C67.5253 21.7283 67.2111 21.678 66.9705 21.5774C66.7299 21.4768 66.4795 21.3108 66.2242 21.0744L65.8854 21.4768C65.7872 21.6428 65.5859 21.8943 65.2717 22.2312C64.9624 22.5682 64.7218 22.7996 64.5598 22.9354C64.6236 23.1366 64.7071 23.3227 64.8053 23.4886C64.9035 23.6546 64.9869 23.8055 65.0508 23.9413C65.2128 24.2431 65.3699 24.5549 65.5172 24.8718C65.6645 25.1886 65.7381 25.5508 65.7381 25.9531C65.7381 26.7227 65.5368 27.4469 65.1342 28.1159C64.7316 28.7848 64.2112 29.3079 63.5778 29.675C63.5434 30.4144 63.3078 31.0431 62.8659 31.5611C62.424 32.0842 61.8103 32.3407 61.0247 32.3407C59.3554 32.3407 58.1525 31.9383 57.416 31.1336C56.6795 30.3289 56.3113 29.4236 56.3113 28.4176C56.3113 27.8141 56.3751 27.3765 56.5077 27.1099C56.6402 26.8434 56.7188 26.7076 56.7532 26.7076C56.4929 26.3052 56.2867 25.9431 56.1394 25.6262C55.9921 25.3094 55.9185 24.8818 55.9185 24.3437C55.9185 24.0771 55.9774 23.8005 56.0903 23.5138C56.2033 23.2271 56.2966 22.9505 56.3604 22.6839L55.3784 21.9798C55.1182 21.7786 54.9022 21.5522 54.7401 21.3008C54.5781 21.0493 54.4308 20.7878 54.2983 20.5212C53.9693 20.7224 53.7091 20.833 53.5127 20.8481C53.3163 20.8632 53.0364 20.8733 52.678 20.8733C53.007 21.6478 53.1788 22.4576 53.1935 23.3126C53.2083 24.1676 52.84 24.9824 52.0888 25.752C52.3491 26.2197 52.5553 26.6221 52.7026 26.9591C52.8499 27.296 52.9235 27.7286 52.9235 28.2667C52.9235 29.0363 52.6878 29.6499 52.2116 30.1025C51.7353 30.5552 51.2051 30.867 50.6159 31.033C50.4195 32.0037 50.0905 32.7079 49.6339 33.1454C49.1773 33.583 48.5194 33.7993 47.67 33.7993H47.6749ZM45.6619 30.3289C45.7257 30.8972 45.9319 31.4253 46.2756 31.9132C46.6193 32.4011 47.1348 32.6425 47.8222 32.6425C48.5096 32.6425 48.9662 32.3558 49.197 31.7875C49.4277 31.2191 49.575 30.6307 49.6388 30.0271C49.6388 29.9265 49.6879 29.8762 49.7861 29.8762C50.3115 29.9416 50.7779 29.836 51.1854 29.5493C51.5929 29.2626 51.7992 28.8351 51.7992 28.2667C51.7992 27.9298 51.7157 27.623 51.5537 27.3363C51.3916 27.0496 51.21 26.773 51.0136 26.5064C50.6552 26.1392 50.4735 25.8023 50.4735 25.5005C50.4735 25.3345 50.5226 25.2088 50.6208 25.1233C50.719 25.0378 50.8516 24.9321 51.0136 24.7963C51.21 24.6304 51.4162 24.4091 51.6273 24.1425C51.8384 23.8759 51.9465 23.4886 51.9465 22.9857C51.9465 22.4475 51.8483 22.015 51.6519 21.678C51.4555 21.341 51.2444 21.0392 51.0136 20.7727C50.6552 20.4055 50.4735 20.0836 50.4735 19.817C50.4735 19.4147 50.6699 19.2135 51.0627 19.2135C51.2591 19.2135 51.4407 19.2386 51.6028 19.2889C51.7648 19.3392 51.9317 19.3996 52.0937 19.465C52.2558 19.5304 52.4129 19.5807 52.5602 19.6159C52.7075 19.6511 52.8302 19.6662 52.9284 19.6662C53.1886 19.6662 53.3949 19.6008 53.5421 19.465C53.6894 19.3292 53.8466 19.1783 54.0086 19.0123C54.2393 18.6753 54.4848 18.5093 54.7451 18.5093C55.0053 18.5093 55.1869 18.6502 55.2851 18.9369C55.3833 19.2236 55.4472 19.5002 55.4815 19.7667C55.5797 20.2345 55.7516 20.5866 55.9971 20.823C56.2425 21.0594 56.5961 21.341 57.0527 21.678C57.2147 21.844 57.3718 21.9949 57.5191 22.1307C57.6664 22.2665 57.74 22.4173 57.74 22.5833C57.74 22.7845 57.7008 22.9505 57.6173 23.0863C57.5338 23.2221 57.4455 23.3528 57.3473 23.4886C57.2834 23.6244 57.2147 23.7753 57.1509 23.9413C57.087 24.1073 57.0527 24.2934 57.0527 24.4946C57.0527 24.7963 57.1361 25.0378 57.2982 25.2238C57.4602 25.4099 57.6271 25.586 57.7891 25.752C58.1476 26.0185 58.3292 26.27 58.3292 26.5064C58.3292 26.6724 58.2899 26.8082 58.2065 26.9088C58.123 27.0093 58.0346 27.1451 57.9364 27.3111C57.8039 27.4771 57.6909 27.6481 57.5927 27.8141C57.4946 27.9801 57.4455 28.1812 57.4455 28.4176C57.4455 28.654 57.4847 28.9307 57.5682 29.2475C57.6517 29.5644 57.8137 29.8662 58.0592 30.1528C58.3047 30.4395 58.6631 30.6809 59.1393 30.8821C59.6156 31.0833 60.244 31.1688 61.0296 31.1336C61.226 31.1336 61.4715 31.0682 61.7661 30.9324C62.0607 30.7966 62.2423 30.4949 62.3062 30.0271C62.3062 29.8913 62.2914 29.7756 62.2571 29.675C62.2227 29.5744 62.1982 29.4738 62.1834 29.3733C62.1687 29.2727 62.1589 29.1369 62.1589 28.9709C62.1932 28.9357 62.2423 28.9055 62.3062 28.8703C62.37 28.8351 62.4191 28.8049 62.4535 28.7697C62.4878 28.7345 62.5369 28.6842 62.6008 28.6188C62.7628 28.5534 62.9592 28.4528 63.1899 28.317C63.4207 28.1812 63.6318 28.0153 63.8282 27.8141C64.0246 27.6129 64.1965 27.3614 64.3437 27.0596C64.491 26.7579 64.5647 26.3907 64.5647 25.9531C64.5647 25.586 64.4567 25.2339 64.2456 24.8969C64.0344 24.5599 63.8282 24.2582 63.6318 23.9916C63.4698 23.725 63.3225 23.4886 63.1899 23.2875C63.0574 23.0863 62.9935 22.9002 62.9935 22.7342C62.9935 22.4978 63.2243 22.2312 63.6809 21.9295C64.0393 21.6277 64.4272 21.2354 64.8347 20.7475C65.2422 20.2647 65.4485 19.5153 65.4485 18.5093C65.4485 18.4088 65.4976 18.3585 65.5958 18.3585H65.8903C66.1506 18.3585 66.3322 18.444 66.4304 18.6099C66.5286 18.7759 66.6121 18.9771 66.6759 19.2135C66.7397 19.4801 66.8576 19.7517 67.0196 20.0182C67.1816 20.2848 67.5253 20.4206 68.0507 20.4206L69.1308 20.2697C69.4254 20.2697 69.5973 20.2848 69.6464 20.32C69.6955 20.3552 69.72 20.486 69.72 20.7224C69.72 20.9236 69.6562 21.165 69.5236 21.4517C69.391 21.7383 69.229 22.0301 69.0326 22.3318C68.8706 22.5984 68.7773 22.9002 68.7626 23.2372C68.7479 23.5741 68.738 23.891 68.738 24.1928C68.738 24.6605 68.8117 25.0378 68.959 25.3244C69.1063 25.6111 69.2879 25.8525 69.4991 26.0537C69.7102 26.2549 69.9409 26.4159 70.1864 26.5315C70.4319 26.6472 70.6676 26.7579 70.8984 26.8585C71.1586 26.9591 71.3893 27.0747 71.5857 27.2105C71.7821 27.3463 71.8803 27.4972 71.8803 27.6632V27.965C71.8803 28.0002 71.8656 28.0304 71.8312 28.0656C71.4041 28.4327 71.0702 28.8552 70.8247 29.323C70.5792 29.7907 70.4565 30.3138 70.4565 30.8821C70.4565 31.4203 70.6529 31.7724 71.0456 31.9383C71.4384 32.1043 71.8656 32.1898 72.3222 32.1898C72.5824 32.1898 72.8279 32.1546 73.0587 32.0892C73.2894 32.0238 73.4858 31.9031 73.6479 31.7372C73.7117 31.6366 73.8099 31.536 73.9424 31.4354C74.075 31.3348 74.237 31.2845 74.4334 31.2845C74.4973 31.2845 74.5316 31.2996 74.5316 31.3348C74.7918 31.702 75.0815 31.9886 75.3908 32.1898C75.7002 32.391 76.088 32.4916 76.5446 32.4916C77.1338 32.4916 77.5659 32.1898 77.8457 31.5863C78.1256 30.9827 78.2631 30.4144 78.2631 29.8812C78.2631 29.6147 78.214 29.3733 78.1158 29.152C78.0176 28.9357 77.9047 28.7244 77.7721 28.5233H77.8212C77.561 28.1561 77.4284 27.8191 77.4284 27.5173C77.4284 27.3514 77.5168 27.2105 77.6935 27.0898C77.8703 26.9741 78.052 26.8786 78.2434 26.8132C78.6902 26.5818 78.9848 26.3052 79.1272 25.9883C79.2696 25.6715 79.3432 25.1786 79.3432 24.5096C79.3432 23.8407 79.245 23.3126 79.0487 22.9304C78.8523 22.5481 78.4251 22.186 77.7721 21.854C77.4775 21.7182 77.2173 21.5875 76.9865 21.4517C76.7558 21.3159 76.6428 21.1197 76.6428 20.8481C76.6428 20.6117 76.7312 20.4206 76.9129 20.2697C77.0945 20.1188 77.2958 19.9629 77.5266 19.7919C77.723 19.6259 77.9292 19.465 78.1403 19.3141C78.3515 19.1632 78.4595 18.957 78.4595 18.6854C78.4595 18.4138 78.322 18.2076 78.0421 18.0567C77.7623 17.9058 77.5413 17.8304 77.3793 17.8304H77.0356C76.8736 17.8304 76.7263 17.8153 76.5937 17.7801C76.4317 17.7449 76.2353 17.7197 76.0046 17.7046C75.7738 17.6895 75.6609 17.5286 75.6609 17.2268C75.6609 17.0256 75.6952 16.8446 75.7591 16.6736C75.8229 16.5076 75.8916 16.3366 75.9555 16.1706C76.0193 16.0046 76.088 15.8386 76.1519 15.6676C76.2157 15.5017 76.2501 15.3357 76.2501 15.1647C76.2501 14.9635 76.2353 14.7372 76.201 14.4907C76.1666 14.2392 76.088 14.0079 75.9555 13.7866C75.8229 13.5703 75.6314 13.3691 75.3712 13.183C75.111 12.9969 74.7378 12.8913 74.2518 12.8561C73.7951 12.8209 73.3925 12.8662 73.0341 12.9818C72.6757 13.0975 72.2731 13.3591 71.8165 13.7614C71.7183 13.9274 71.6054 14.0883 71.4728 14.2392C71.3402 14.3901 71.1782 14.4656 70.9867 14.4656C70.8885 14.4656 70.7658 14.4555 70.6185 14.4404C70.4712 14.4253 70.3976 14.3348 70.3976 14.1638C70.3337 13.6256 70.2601 13.1227 70.1766 12.6449C70.0931 12.167 69.9557 11.7596 69.7593 11.4176C69.5629 11.0756 69.2781 10.8091 68.9001 10.623C68.522 10.4369 67.9917 10.3413 67.2995 10.3413C67.0049 10.3413 66.6415 10.3815 66.2144 10.467C65.7872 10.5525 65.3797 10.8593 64.9869 11.3975C64.8249 11.6641 64.6678 11.9005 64.5205 12.1017C64.3732 12.3028 64.2161 12.4034 64.0541 12.4034C63.8233 12.4034 63.5778 12.338 63.3176 12.2022C63.1212 12.1369 62.9886 12.0866 62.9248 12.0514L62.7284 11.9508C61.8741 11.9508 61.2849 12.1922 60.956 12.6801C60.627 13.1679 60.3963 13.5954 60.2686 13.9626C60.1704 14.2292 60.0771 14.4404 59.9986 14.5913C59.9151 14.7422 59.7923 14.8176 59.6303 14.8176C59.4339 14.8176 59.2621 14.6768 59.1148 14.3901C58.9675 14.1034 58.7957 13.7765 58.5993 13.4093C58.4372 13.0724 58.2654 12.6951 58.0837 12.2777C57.9021 11.8602 57.6811 11.473 57.4209 11.1209C57.1607 10.7688 56.8465 10.4771 56.488 10.2407C56.1296 10.0043 55.7025 9.88864 55.2115 9.88864C54.5241 9.88864 53.9251 9.98923 53.4145 10.1904C52.9039 10.3916 52.4227 10.7789 51.9612 11.3472C51.863 11.483 51.755 11.6138 51.642 11.7496C51.5291 11.8854 51.3867 11.9508 51.2247 11.9508L51.1265 11.9005C50.8319 11.5987 50.5177 11.312 50.1937 11.0454C49.8647 10.7789 49.4866 10.6431 49.0644 10.6431C48.1119 10.6431 47.3116 10.9549 46.6537 11.5736C45.9958 12.1922 45.6717 12.9919 45.6717 13.9626C45.6717 14.2292 45.6963 14.5058 45.7454 14.7925C45.7945 15.0792 45.819 15.386 45.819 15.723C45.819 15.8236 45.8043 15.9241 45.7699 16.0247C45.7355 16.1253 45.6226 16.2259 45.4262 16.3265C44.7732 16.3919 44.1595 16.6031 43.585 16.9552C43.0106 17.3073 42.7258 17.8706 42.7258 18.6401C42.7258 19.1079 42.8387 19.5555 43.0695 19.973C43.3003 20.3904 43.5458 20.7878 43.806 21.1549C43.8698 21.2203 43.8698 21.2907 43.806 21.3561L43.4132 21.7082C43.153 21.9094 42.9468 22.1256 42.7995 22.362C42.6522 22.5984 42.5785 22.9002 42.5785 23.2673C42.5785 23.6697 42.6865 23.9815 42.8977 24.1978C43.1088 24.4141 43.3494 24.6102 43.6096 24.7762C43.806 24.912 43.968 25.0428 44.1006 25.1786C44.2331 25.3144 44.297 25.5156 44.297 25.7821C44.297 25.8173 44.2822 25.8475 44.2479 25.8827C43.8207 26.2197 43.5261 26.5718 43.3641 26.9389C43.2021 27.3061 43.1186 27.7437 43.1186 28.2466C43.1186 28.5836 43.2413 28.9659 43.4868 29.4034C43.7323 29.841 44.0858 30.0925 44.5424 30.1579C44.6063 30.1227 44.7241 30.0925 44.8861 30.0573C45.0482 30.0221 45.1807 30.007 45.2789 30.007L45.5735 30.1579L45.6717 30.3088L45.6619 30.3289Z" fill="black"/>
<path d="M94.5834 32.7432C93.6996 32.7432 92.8748 32.5169 92.1089 32.0642C91.3429 31.6115 90.631 31.0985 89.978 30.5302C89.7178 30.5302 89.4625 30.5704 89.217 30.6559C88.9715 30.7414 88.6867 30.7816 88.3578 30.7816C87.6066 30.7816 86.9192 30.6308 86.3005 30.329C85.6819 30.0272 85.1418 29.6148 84.6852 29.0967C84.2286 28.5787 83.8702 27.9802 83.61 27.3112C83.3497 26.6423 83.2172 25.918 83.2172 25.1485C83.2172 24.9825 83.2319 24.8316 83.2663 24.6958C83.3006 24.56 83.3301 24.4092 83.3645 24.2432C82.5789 23.9414 81.9308 23.4384 81.4251 22.7343C80.9194 22.0302 80.6641 21.2405 80.6641 20.3704C80.6641 19.3293 80.8752 18.4189 81.3023 17.6293C81.7295 16.8396 82.3678 16.2612 83.2172 15.8941C83.0208 14.7876 83.0699 13.8068 83.3645 12.9518C83.6591 12.0967 84.1157 11.4026 84.7343 10.8645C85.3529 10.3263 86.0796 9.96922 86.9143 9.78312C87.7489 9.59703 88.5885 9.62218 89.4379 9.85857C89.7963 9.11922 90.2038 8.55087 90.6605 8.14851C91.1171 7.74614 91.5688 7.45945 92.0057 7.29348C92.4476 7.1275 92.8453 7.02691 93.2037 6.9917C93.5622 6.95649 93.8224 6.94141 93.9893 6.94141C95.5899 6.94141 96.783 7.28342 97.5637 7.97247C98.3492 8.66152 98.904 9.42099 99.2281 10.2609C99.9449 10.2609 100.642 10.3263 101.31 10.4621C101.978 10.5979 102.577 10.8293 103.097 11.1663C103.617 11.5032 104.035 11.9609 104.344 12.5494C104.653 13.1379 104.811 13.8822 104.811 14.7876C104.811 15.0893 104.776 15.366 104.712 15.6174C104.649 15.8689 104.58 16.1103 104.516 16.3467C104.452 16.5831 104.383 16.7994 104.32 17.0006C104.256 17.2018 104.221 17.4029 104.221 17.6041C104.221 17.6695 104.285 17.755 104.423 17.8556C104.555 17.9562 104.707 18.092 104.874 18.258C105.306 18.6251 105.768 19.0979 106.249 19.6663C106.73 20.2346 106.976 20.9086 106.976 21.6781C106.976 22.2163 106.883 22.674 106.701 23.0612C106.519 23.4485 106.284 23.7805 105.999 24.0671C105.714 24.3538 105.385 24.6053 105.002 24.8216C104.619 25.0379 104.226 25.2491 103.834 25.4503C104.03 25.9532 104.128 26.421 104.128 26.8586C104.128 27.3967 104.02 27.8796 103.809 28.3171C103.598 28.7547 103.303 29.1068 102.925 29.3734C102.547 29.6399 102.11 29.8361 101.604 29.9518C101.099 30.0674 100.568 30.0775 100.014 29.9769C99.2281 30.9174 98.4278 31.6115 97.6128 32.0642C96.7977 32.5169 95.7863 32.7432 94.5736 32.7432H94.5834ZM90.194 29.0716C90.4886 29.0716 90.7243 29.1873 90.9059 29.4237C91.0876 29.66 91.2104 29.8763 91.2742 30.0775C91.2742 30.1127 91.284 30.1429 91.2987 30.1781C91.3135 30.2133 91.3233 30.2435 91.3233 30.2787C91.7799 30.6458 92.3445 30.9476 93.0172 31.184C93.6898 31.4204 94.3183 31.5361 94.9075 31.5361C95.5605 31.5361 96.1595 31.4003 96.6995 31.1337C97.2396 30.8671 97.7895 30.5453 98.3443 30.1781C98.5407 30.0423 98.6733 29.8914 98.7371 29.7254C98.8009 29.5595 98.8599 29.3985 98.909 29.2476C98.9581 29.0967 99.017 28.9609 99.0808 28.8453C99.1446 28.7296 99.2625 28.6692 99.4245 28.6692C99.5865 28.6692 99.7682 28.6893 99.9646 28.7195C100.161 28.7547 100.421 28.7698 100.75 28.7698C101.305 28.7698 101.796 28.6038 102.223 28.2669C102.65 27.9299 102.861 27.4118 102.861 26.7077C102.861 26.4713 102.822 26.2299 102.739 25.9784C102.655 25.7269 102.582 25.5358 102.518 25.4C102.356 25.0328 102.361 24.7914 102.542 24.6707C102.724 24.555 102.994 24.4092 103.352 24.2432C103.878 24.0068 104.418 23.7151 104.973 23.363C105.527 23.0109 105.807 22.4476 105.807 21.6781C105.807 20.974 105.552 20.3855 105.046 19.9177C104.541 19.45 104.054 19.0476 103.598 18.7106C103.338 18.5447 103.122 18.3938 102.96 18.258C102.798 18.1222 102.714 18.0065 102.714 17.9059C102.714 17.6695 102.807 17.3677 102.994 17.0006C103.151 16.6988 103.298 16.3719 103.436 16.0198C103.573 15.6677 103.647 15.3056 103.647 14.9384C103.647 14.1337 103.49 13.505 103.18 13.0524C102.871 12.5997 102.488 12.2577 102.032 12.0213C101.575 11.7849 101.099 11.6441 100.613 11.5938C100.122 11.5435 99.6798 11.5183 99.2919 11.5183C98.5751 11.5183 98.1823 11.4177 98.1185 11.2166L97.873 10.5124C97.711 10.0095 97.4556 9.60709 97.112 9.30531C96.7683 9.00354 96.4099 8.76212 96.0367 8.57602C95.6587 8.38993 95.2953 8.27425 94.9369 8.22395C94.5785 8.17365 94.3183 8.14851 94.1513 8.14851C93.6947 8.14851 93.2381 8.1988 92.7815 8.29939C92.3249 8.39999 91.9174 8.57099 91.559 8.80235C91.3969 8.96833 91.23 9.16448 91.068 9.38076C90.9059 9.59703 90.7734 9.89377 90.6752 10.2609C90.6114 10.5627 90.5426 10.8293 90.4788 11.0657C90.415 11.3021 90.2971 11.4177 90.1351 11.4177C89.8749 11.4177 89.708 11.3775 89.6441 11.292C89.5803 11.2065 89.4625 11.1311 89.3004 11.0657C89.1384 11.0003 88.9224 10.95 88.6622 10.9148C88.4019 10.8796 88.1074 10.8645 87.7784 10.8645C86.7326 10.8645 85.9078 11.2518 85.3038 12.0213C84.6999 12.7908 84.3955 13.666 84.3955 14.6367C84.3955 14.7373 84.4053 14.8731 84.4201 15.039C84.4348 15.205 84.4446 15.3408 84.4446 15.4414C84.479 15.542 84.4937 15.6677 84.4937 15.8186V16.5479L84.4446 16.6485C84.3808 16.7491 84.2924 16.8145 84.1795 16.8497C84.0666 16.8849 83.9635 16.9151 83.8653 16.9503C83.5461 17.0157 83.3694 17.066 83.335 17.1012C82.79 17.5689 82.4021 18.0316 82.1763 18.4843C81.9504 18.937 81.8375 19.5657 81.8375 20.3704C81.8375 21.0745 82.0879 21.6278 82.5838 22.0302C83.0797 22.4325 83.5412 22.7695 83.9586 23.0361C84.2139 23.2021 84.4152 23.3379 84.5625 23.4384C84.7098 23.539 84.7834 23.6748 84.7834 23.8408C84.7834 24.0068 84.7589 24.1577 84.7098 24.2935C84.6607 24.4293 84.6017 24.545 84.5379 24.6455C84.4397 24.8467 84.3906 25.063 84.3906 25.2994C84.3906 25.8677 84.4888 26.416 84.6852 26.934C84.8816 27.4521 85.1516 27.9148 85.4953 28.3171C85.839 28.7195 86.2563 29.0464 86.7473 29.2979C87.2383 29.5494 87.7784 29.6751 88.3676 29.6751C88.4658 29.6751 88.5885 29.6399 88.7358 29.5745C88.8831 29.5092 89.0402 29.4387 89.2022 29.3734C89.3348 29.308 89.487 29.2376 89.6687 29.1722C89.8503 29.1068 90.0222 29.0716 90.1842 29.0716H90.194Z" fill="black"/>
<path d="M88.496 19.2431C89.0763 19.2431 89.5467 18.5766 89.5467 17.7544C89.5467 16.9322 89.0763 16.2656 88.496 16.2656C87.9157 16.2656 87.4453 16.9322 87.4453 17.7544C87.4453 18.5766 87.9157 19.2431 88.496 19.2431Z" fill="black"/>
<path d="M95.4726 19.2431C96.0529 19.2431 96.5233 18.5766 96.5233 17.7544C96.5233 16.9322 96.0529 16.2656 95.4726 16.2656C94.8923 16.2656 94.4219 16.9322 94.4219 17.7544C94.4219 18.5766 94.8923 19.2431 95.4726 19.2431Z" fill="black"/>
<path d="M88.6571 21.6785C90.4836 22.6291 92.8943 22.6291 94.7158 21.6785C95.0644 21.4975 95.1675 20.9945 94.976 20.6575C94.7698 20.2954 94.3329 20.2049 93.9794 20.391C93.9499 20.406 93.7437 20.5016 93.9057 20.4312C93.8222 20.4664 93.7388 20.5016 93.6504 20.5318C93.4442 20.6072 93.2331 20.6676 93.0219 20.7229C92.5801 20.8336 92.1333 20.8989 91.6767 20.8989C91.22 20.8989 90.7782 20.8336 90.3363 20.7229C90.1252 20.6676 89.914 20.6072 89.7127 20.5318C89.6293 20.5016 89.5409 20.4714 89.4623 20.4312C89.6243 20.5016 89.423 20.406 89.3887 20.391C89.0401 20.2099 88.5982 20.2954 88.392 20.6575C88.2005 20.9895 88.3036 21.4924 88.6522 21.6785H88.6571Z" fill="black"/>
</g>
<g clip-path="url(#clip1_611_5491)">
<path d="M123.32 34C119.695 34 117.885 32.5917 117.885 29.7751C117.885 29.3074 117.985 28.8849 118.184 28.5178C118.384 28.1506 118.583 27.7633 118.783 27.3609C118.319 27.0944 117.91 26.7574 117.561 26.355C117.212 25.9527 117.037 25.4346 117.037 24.7959C117.037 24.2275 117.152 23.7648 117.386 23.4127C117.621 23.0607 117.885 22.6834 118.184 22.2811C118.119 22.2157 118.059 22.1905 118.01 22.2056C117.96 22.2207 117.92 22.1956 117.885 22.1302C117.287 21.7932 116.763 21.3254 116.314 20.7219C115.865 20.1183 115.641 19.4645 115.641 18.7604C115.641 18.1216 115.791 17.5633 116.09 17.0754C116.389 16.5876 116.773 16.1299 117.237 15.6923C116.673 15.124 116.224 14.5607 115.89 14.0074C115.556 13.4541 115.392 12.7399 115.392 11.8698C115.392 10.4967 115.89 9.37012 116.888 8.5C116.289 8.23343 115.88 7.83609 115.666 7.31805C115.452 6.8 115.342 6.23669 115.342 5.63314C115.342 5.19556 115.417 4.7429 115.566 4.27515C115.716 3.8074 115.94 3.37988 116.239 2.9926C116.539 2.60533 116.913 2.2784 117.361 2.01183C117.81 1.74527 118.334 1.59438 118.932 1.55917C119.296 1.52396 119.63 1.54408 119.929 1.60947C120.229 1.67485 120.513 1.82574 120.777 2.06213C121.311 1.35799 121.964 0.839941 122.747 0.502959C123.53 0.165976 124.352 0 125.215 0C126.377 0 127.26 0.271598 127.858 0.804734C128.456 1.3429 128.955 1.87604 129.354 2.4142C129.618 2.04704 130.017 1.77544 130.551 1.60947C131.084 1.44349 131.683 1.35799 132.346 1.35799C133.543 1.35799 134.44 1.59941 135.039 2.07722C135.637 2.55503 136.121 3.32456 136.485 4.37574C137.183 4.34053 137.831 4.43609 138.429 4.65237C139.028 4.86864 139.561 5.18047 140.025 5.58284C140.489 5.98521 140.858 6.47308 141.122 7.04142C141.386 7.61479 141.521 8.23343 141.521 8.9074C141.521 9.71213 141.307 10.3861 140.873 10.9243C140.439 11.4624 139.91 11.8648 139.277 12.1314C139.641 12.6041 139.94 13.1172 140.175 13.6704C140.409 14.2237 140.524 14.787 140.524 15.3553C140.524 16.4317 140.299 17.2817 139.846 17.9003C139.392 18.524 138.674 19.0672 137.681 19.5349C138.016 20.1083 138.27 20.6515 138.454 21.1746C138.639 21.6976 138.729 22.276 138.729 22.9148C138.694 23.4882 138.654 23.8654 138.604 24.0465C138.554 24.2325 138.479 24.4237 138.38 24.6249C139.462 24.8914 140.309 25.3994 140.913 26.1337C141.516 26.8731 141.82 27.7633 141.82 28.8044C141.82 29.5438 141.656 30.1976 141.322 30.771C140.988 31.3444 140.574 31.8222 140.075 32.2095C139.576 32.5967 139.018 32.8885 138.405 33.0896C137.791 33.2908 137.198 33.3914 136.634 33.3914C135.637 33.3914 134.749 33.1902 133.967 32.7879C133.184 32.3855 132.53 31.8473 131.997 31.1784C131.463 30.5095 131.084 29.745 130.85 28.8899C130.616 28.0349 130.566 27.1547 130.7 26.2494C129.738 26.013 129.015 25.5704 128.531 24.9166C128.047 24.2627 127.858 23.4831 127.958 22.5778L127.11 22.779V22.9299C127.175 23.1965 127.245 23.4429 127.309 23.6592C127.374 23.8754 127.409 24.1219 127.409 24.3885C127.409 24.7556 127.369 25.0825 127.285 25.3692C127.2 25.6559 127.025 25.9124 126.761 26.1488C127.095 26.516 127.359 27.0038 127.559 27.6074C127.758 28.2109 127.858 28.9 127.858 29.6695C127.858 31.1784 127.419 32.2749 126.537 32.9639C125.654 33.653 124.582 33.995 123.32 33.995V34ZM119.082 29.7802C119.082 30.7509 119.431 31.5053 120.134 32.0385C120.837 32.5766 121.939 32.8231 123.445 32.7929C123.814 32.7929 124.188 32.7325 124.577 32.6169C124.961 32.5012 125.305 32.3151 125.604 32.0686C125.903 31.8172 126.138 31.4751 126.307 31.0426C126.472 30.6101 126.557 30.092 126.557 29.4885C126.557 29.0861 126.492 28.6787 126.357 28.2612C126.222 27.8438 126.073 27.4515 125.908 27.0843C125.774 26.9183 125.599 26.7574 125.385 26.6065C125.17 26.4556 125.061 26.2494 125.061 25.9778V25.9275C125.061 25.8923 125.076 25.8621 125.11 25.8269L125.21 25.7263C125.474 25.5905 125.709 25.4246 125.908 25.2234C126.108 25.0222 126.207 24.7405 126.207 24.3734C126.207 24.1068 126.158 23.805 126.058 23.4731C125.958 23.1411 125.823 22.8896 125.659 22.7237L125.41 22.5728C125.31 22.5376 125.22 22.442 125.135 22.271C125.051 22.105 125.011 21.9541 125.011 21.8183C125.011 21.5166 125.195 21.3657 125.559 21.3657C125.759 21.3657 125.958 21.4059 126.158 21.4914C126.357 21.5769 126.571 21.6172 126.806 21.6172C126.97 21.6172 127.195 21.592 127.479 21.5417C127.763 21.4914 127.968 21.4311 128.102 21.3657C128.302 21.2299 128.436 21.1343 128.501 21.0639C128.566 20.9985 128.736 20.9633 129 20.9633C129.434 20.9633 129.648 21.1343 129.648 21.4663C129.648 21.6322 129.608 21.7429 129.524 21.7932C129.439 21.8435 129.364 21.9541 129.299 22.1201C129.234 22.2559 129.189 22.4219 129.174 22.6231C129.159 22.8243 129.15 22.9751 129.15 23.0757C129.15 23.5485 129.289 23.971 129.573 24.3382C129.858 24.7104 130.247 24.9618 130.745 25.0976C131.079 25.0976 131.428 25.2133 131.792 25.4497C131.992 25.6157 132.052 25.7766 131.967 25.9325C131.882 26.0834 131.842 26.2444 131.842 26.4104V27.1195C131.842 27.7583 131.957 28.3769 132.191 28.9654C132.426 29.5538 132.75 30.0769 133.164 30.5296C133.578 30.9823 134.086 31.3544 134.685 31.6411C135.283 31.9278 135.946 32.0686 136.679 32.0686C137.642 32.0686 138.524 31.7568 139.322 31.1382C140.12 30.5195 140.519 29.7198 140.519 28.7441C140.519 28.1405 140.309 27.5521 139.895 26.9787C139.482 26.4104 138.938 26.0231 138.275 25.8219C138.21 25.8219 138.041 25.7867 137.776 25.7213C137.512 25.6559 137.362 25.6207 137.327 25.6207C137.128 25.4849 137.003 25.3441 136.953 25.1932C136.904 25.0423 136.879 24.9166 136.879 24.816C136.879 24.4488 136.988 24.1722 137.203 23.9861C137.417 23.8 137.527 23.5083 137.527 23.1059C137.527 22.437 137.402 21.8033 137.153 21.2148C136.904 20.6263 136.545 20.1133 136.081 19.6757C135.916 19.5399 135.767 19.4394 135.632 19.374C135.497 19.3086 135.433 19.1728 135.433 18.9716C135.433 18.7704 135.517 18.6195 135.682 18.5189C135.846 18.4183 136.046 18.353 136.28 18.3178C136.515 18.2825 136.764 18.2574 137.028 18.2423C137.293 18.2272 137.512 18.182 137.676 18.1166C138.14 17.9154 138.534 17.6237 138.848 17.2364C139.162 16.8491 139.357 16.2707 139.422 15.4962C139.457 15.2296 139.382 14.8473 139.197 14.3645C139.013 13.8766 138.823 13.5346 138.624 13.3334L137.627 12.3728C137.562 12.2722 137.527 12.1565 137.527 12.0207C137.527 11.8195 137.627 11.6536 137.826 11.5178L139.023 11.0148C139.821 10.5772 140.22 9.87308 140.22 8.89734C140.22 7.69024 139.786 6.83018 138.923 6.32722C138.06 5.82426 136.993 5.57278 135.732 5.57278C135.467 5.50237 135.323 5.32633 135.308 5.0497C135.293 4.76805 135.268 4.54172 135.233 4.36568C135.069 3.71183 134.71 3.23905 134.161 2.94734C133.612 2.65562 133.004 2.50473 132.341 2.50473C131.309 2.50473 130.511 2.86183 129.947 3.57604C129.783 3.73698 129.673 3.86272 129.623 3.9432C129.573 4.02367 129.464 4.06391 129.299 4.06391C128.935 4.06391 128.701 3.92308 128.601 3.64142C128.501 3.35976 128.402 3.13846 128.302 2.97249C128.202 2.77633 128.067 2.57012 127.903 2.35385C127.738 2.1426 127.539 1.93639 127.304 1.73521C127.07 1.53905 126.781 1.37811 126.432 1.26746C126.083 1.15178 125.674 1.09142 125.21 1.09142C123.849 1.1568 122.717 1.64467 121.819 2.55C121.655 2.78639 121.535 2.9926 121.47 3.1787C121.405 3.36479 121.236 3.45533 120.972 3.45533C120.608 3.45533 120.313 3.33965 120.099 3.10325C119.885 2.86686 119.61 2.75118 119.276 2.75118C118.713 2.75118 118.129 2.95237 117.531 3.35473C116.933 3.7571 116.598 4.29024 116.534 4.95917C116.469 5.89467 116.524 6.50828 116.703 6.78994C116.883 7.07663 117.052 7.26775 117.217 7.36834C117.411 7.50414 117.73 7.63491 118.169 7.77071C118.608 7.90651 118.827 8.12278 118.827 8.42456C118.827 8.62574 118.748 8.78669 118.583 8.90237C118.418 9.01805 118.259 9.11361 118.094 9.17899C117.576 9.44556 117.207 9.78255 116.997 10.1849C116.788 10.5873 116.683 11.1405 116.683 11.8396C116.683 12.2068 116.773 12.6746 116.952 13.2479C117.132 13.8163 117.566 14.3544 118.249 14.8524C118.443 14.9882 118.638 15.1139 118.837 15.2296C119.032 15.3453 119.132 15.4911 119.132 15.6571C119.132 15.9941 118.987 16.1953 118.693 16.2607C118.399 16.326 118.174 16.4467 118.01 16.6127C117.685 16.9497 117.416 17.2414 117.207 17.4929C116.997 17.7444 116.888 18.1518 116.888 18.7251C116.888 19.0923 116.972 19.4695 117.137 19.8568C117.302 20.2441 117.571 20.5509 117.935 20.7873C118.234 20.9533 118.593 21.1645 119.007 21.416C119.421 21.6675 119.63 21.9944 119.63 22.3967C119.63 22.5627 119.59 22.6885 119.506 22.774C119.421 22.8595 119.316 22.9349 119.181 23.0003C118.947 23.1663 118.743 23.3775 118.558 23.629C118.374 23.8805 118.284 24.1722 118.284 24.5092C118.284 25.0775 118.409 25.4899 118.658 25.7414C118.907 25.9929 119.316 26.2544 119.88 26.521C120.114 26.6216 120.229 26.7876 120.229 27.024C120.229 27.1899 120.194 27.3157 120.129 27.4012C120.064 27.4867 119.979 27.5772 119.88 27.6778C119.645 28.045 119.456 28.392 119.306 28.7089C119.156 29.0257 119.082 29.3879 119.082 29.7902V29.7802ZM125.066 14.4852C125.066 14.3846 125.165 14.2337 125.365 14.0325V11.8698C125.365 11.6686 125.315 11.4675 125.215 11.2663C125.115 11.0651 125.066 10.8287 125.066 10.5621C125.066 10.2604 125.225 10.0843 125.539 10.034C125.853 9.98373 126.128 9.95858 126.362 9.95858C127.025 9.95858 127.644 10.2453 128.207 10.8136C128.771 11.382 129.09 12.0056 129.155 12.6746C129.219 13.4441 129.015 14.0728 128.531 14.5607C128.047 15.0485 127.474 15.305 126.811 15.3402C126.512 15.3402 126.148 15.305 125.714 15.2396C125.28 15.1743 125.066 14.9228 125.066 14.4852ZM126.562 14.1834C126.696 14.2488 126.826 14.284 126.96 14.284C127.295 14.284 127.559 14.1231 127.758 13.8062C127.958 13.4894 128.057 13.1423 128.057 12.7751C128.057 12.408 127.908 12.0559 127.609 11.7189C127.309 11.382 126.911 11.2009 126.412 11.1657C126.412 11.3317 126.437 11.6284 126.487 12.0459C126.537 12.4633 126.562 13.1775 126.562 14.1834Z" fill="black"/>
<path d="M150.631 11.418C150.063 11.418 149.594 11.3174 149.225 11.1213C148.856 10.9251 148.487 10.6032 148.123 10.1606C147.959 10.2612 147.714 10.3769 147.395 10.5127C147.076 10.6485 146.717 10.7139 146.318 10.7139C145.65 10.7139 145.041 10.4473 144.488 9.90916C143.939 9.371 143.66 8.76745 143.66 8.09851C143.66 7.66094 143.735 7.30887 143.885 7.0423C144.034 6.77573 144.244 6.45384 144.508 6.08668C144.408 5.85029 144.308 5.60887 144.209 5.35739C144.109 5.10591 144.059 4.86449 144.059 4.6281C144.059 3.75798 144.358 3.05384 144.957 2.51567C145.555 1.97751 146.253 1.71094 147.051 1.71094C147.515 1.71094 147.983 1.77632 148.447 1.91212C148.911 2.04792 149.28 2.36478 149.544 2.86774C150.143 2.53076 150.776 2.36478 151.439 2.36478C152.302 2.36478 153.02 2.61123 153.583 3.0991C154.147 3.58697 154.431 4.25591 154.431 5.09585C154.431 5.8704 154.301 6.43875 154.047 6.79082C153.793 7.14289 153.389 7.43964 152.835 7.67603C152.935 7.87721 153.025 8.08845 153.11 8.30975C153.194 8.53106 153.234 8.7423 153.234 8.94348C153.234 9.61745 153 10.2009 152.531 10.6887C152.062 11.1766 151.429 11.4231 150.626 11.4231L150.631 11.418ZM144.662 31.8382C144.662 31.471 144.712 31.1843 144.812 30.9831C144.912 30.7819 145.046 30.5455 145.211 30.279C144.747 29.6754 144.413 29.1725 144.214 28.7701C144.014 28.3677 143.914 27.9805 143.914 27.6133C143.914 27.2461 144.029 26.8337 144.264 26.3811C144.498 25.9284 144.777 25.5663 145.111 25.2997C144.747 24.7967 144.448 24.2334 144.214 23.6148C143.979 22.9961 143.85 22.3473 143.815 21.6784C143.78 21.0095 143.865 20.3556 144.064 19.7169C144.264 19.0781 144.598 18.5098 145.061 18.0068C144.862 17.8408 144.677 17.6145 144.513 17.3278C144.348 17.0411 144.249 16.6991 144.214 16.2967C144.179 15.658 144.328 15.1299 144.662 14.7124C144.997 14.295 145.42 13.9479 145.934 13.6814C146.448 13.4148 147.006 13.2186 147.605 13.1029C148.203 12.9873 148.751 12.9269 149.25 12.9269C150.048 12.9269 150.736 13.0879 151.319 13.4047C151.903 13.7216 152.227 14.2698 152.292 15.0393C152.825 15.1751 153.289 15.3763 153.688 15.6429C154.087 15.9095 154.286 16.3822 154.286 17.0512C154.286 17.4887 154.152 17.8911 153.888 18.2583C153.623 18.6254 153.339 19.0127 153.04 19.4151C153.538 19.6163 153.873 19.9029 154.037 20.2701C154.202 20.6373 154.286 21.0396 154.286 21.4772C154.286 21.945 154.177 22.3674 153.952 22.7346C153.728 23.1018 153.494 23.489 153.239 23.8914C153.239 24.0574 153.439 24.2586 153.838 24.495C154.137 24.6961 154.461 24.9627 154.81 25.2997C155.159 25.6367 155.334 26.2553 155.334 27.1606C155.334 28.066 155.134 28.6444 154.73 28.9964C154.331 29.3485 153.962 29.61 153.628 29.776C153.728 30.0426 153.828 30.2941 153.927 30.5305C154.027 30.7669 154.077 31.0334 154.077 31.3352C154.077 31.9035 153.893 32.4065 153.529 32.8441C153.16 33.2816 152.611 33.4979 151.873 33.4979C151.374 33.4979 150.906 33.4376 150.472 33.3219C150.038 33.2062 149.634 33.0603 149.27 32.8944C148.801 33.0956 148.392 33.2464 148.043 33.347C147.694 33.4476 147.285 33.4979 146.817 33.4979C146.213 33.4979 145.705 33.3621 145.291 33.0956C144.872 32.824 144.662 32.4065 144.662 31.8382ZM148.153 8.86301C148.417 8.86301 148.687 9.02898 148.951 9.36094C149.115 9.56212 149.315 9.76833 149.549 9.98461C149.784 10.2009 150.133 10.3065 150.596 10.3065C150.96 10.3065 151.295 10.1808 151.594 9.93431C151.893 9.68786 152.043 9.37603 152.043 9.00887C152.043 8.80768 152.003 8.63668 151.918 8.48579C151.833 8.3349 151.758 8.19407 151.693 8.0633C151.629 7.93254 151.559 7.83697 151.494 7.79171C151.429 7.74141 151.394 7.65088 151.394 7.51508C151.394 7.41449 151.404 7.30887 151.419 7.19319C151.434 7.07751 151.509 7.00206 151.644 6.96685C152.531 6.59969 153.05 6.25768 153.204 5.94585C153.359 5.63401 153.439 5.35739 153.439 5.121C153.439 4.65324 153.269 4.26597 152.935 3.9491C152.601 3.63224 152.142 3.47632 151.574 3.47632C151.305 3.47632 151.06 3.52662 150.841 3.62721C150.621 3.7278 150.427 3.82839 150.262 3.92898C150.093 4.02958 149.943 4.12011 149.809 4.20561C149.674 4.29111 149.524 4.33135 149.355 4.33135C149.051 4.33135 148.816 4.16538 148.647 3.82839C148.512 3.592 148.338 3.36567 148.118 3.1494C147.899 2.93313 147.505 2.82248 146.931 2.82248C146.393 2.82248 145.964 3.00857 145.645 3.3707C145.326 3.73786 145.166 4.1352 145.166 4.56774C145.166 4.86952 145.226 5.11094 145.351 5.292C145.47 5.4781 145.62 5.63401 145.794 5.76478C146.074 5.96597 146.213 6.21242 146.213 6.51419L146.114 6.76567C146.114 6.86626 146.064 6.91656 145.964 6.91656C145.565 6.85117 145.256 6.95177 145.041 7.21833C144.827 7.4849 144.717 7.78165 144.717 8.11863C144.717 8.68697 144.902 9.08431 145.266 9.31567C145.63 9.54703 145.979 9.66774 146.313 9.66774C146.577 9.66774 146.777 9.6275 146.911 9.542C147.046 9.4565 147.176 9.35088 147.31 9.21508C147.475 9.14969 147.619 9.07425 147.734 8.98875C147.849 8.90324 147.993 8.86301 148.158 8.86301H148.153ZM145.859 31.6873C145.859 31.9538 145.974 32.1399 146.208 32.2405C146.443 32.3411 146.692 32.3914 146.956 32.3914C147.32 32.3914 147.619 32.326 147.854 32.1902C148.088 32.0544 148.288 31.9035 148.452 31.7376C148.552 31.6722 148.652 31.5967 148.751 31.5112C148.851 31.4257 148.936 31.3855 149.001 31.3855C149.135 31.3855 149.26 31.4257 149.375 31.5112C149.489 31.5967 149.634 31.6722 149.799 31.7376C150.063 31.9035 150.372 32.0544 150.721 32.1902C151.07 32.326 151.444 32.3914 151.843 32.3914C152.177 32.3914 152.417 32.2556 152.566 31.989C152.716 31.7225 152.791 31.4559 152.791 31.1843C152.791 31.0183 152.751 30.8674 152.666 30.7316C152.581 30.5958 152.506 30.4651 152.441 30.3293C152.307 30.1633 152.192 30.0225 152.092 29.9018C151.993 29.7861 151.943 29.6402 151.943 29.4742C151.943 29.3083 152.008 29.1926 152.142 29.1222C152.277 29.0568 152.441 28.9713 152.641 28.8707C152.905 28.7701 153.189 28.6142 153.489 28.3929C153.788 28.1766 153.937 27.734 153.937 27.0651C153.937 26.4967 153.803 26.0642 153.538 25.7624C153.274 25.4606 152.99 25.2092 152.691 25.008C152.456 24.842 152.257 24.6811 152.092 24.5302C151.928 24.3793 151.843 24.1529 151.843 23.8512C151.843 23.5846 151.893 23.3683 151.998 23.1973C152.102 23.0313 152.242 22.8654 152.412 22.6944C152.551 22.4932 152.696 22.287 152.855 22.0657C153.01 21.8494 153.09 21.6382 153.09 21.437C153.09 21.0698 152.96 20.8083 152.706 20.6574C152.451 20.5065 152.187 20.4009 151.913 20.3305C151.743 20.2651 151.574 20.1645 151.399 20.0287C151.23 19.8929 151.145 19.742 151.145 19.576C151.145 19.41 151.22 19.2592 151.374 19.1234C151.529 18.9876 151.688 18.8367 151.863 18.6707C152.137 18.5047 152.407 18.2784 152.681 17.9917C152.955 17.705 153.09 17.3328 153.09 16.86C153.09 16.4929 152.955 16.2666 152.681 16.1811C152.407 16.0956 152.018 16.0905 151.509 16.1559C151.235 15.9899 151.075 15.839 151.025 15.7032C150.975 15.5674 150.95 15.4166 150.95 15.2506V14.9237C150.95 14.808 150.901 14.6822 150.801 14.5464C150.701 14.4106 150.532 14.305 150.297 14.2195C150.063 14.134 149.729 14.0938 149.29 14.0938C148.148 14.0938 147.221 14.295 146.497 14.6973C145.774 15.0997 145.415 15.6177 145.415 16.2515C145.415 16.5532 145.555 16.8852 145.839 17.2574C146.124 17.6245 146.428 17.876 146.762 18.0118C146.727 18.0772 146.652 18.1728 146.537 18.2885C146.423 18.4041 146.328 18.4997 146.263 18.5651C145.799 19.0328 145.475 19.5006 145.291 19.9683C145.106 20.4361 145.016 20.9038 145.016 21.3716C145.016 22.2065 145.226 22.9509 145.64 23.6047C146.054 24.2586 146.363 24.8018 146.562 25.2343C146.627 25.3701 146.627 25.4707 146.562 25.5361C146.497 25.6015 146.378 25.687 146.213 25.7876C145.859 26.1245 145.615 26.4062 145.475 26.6426C145.336 26.879 145.266 27.226 145.266 27.6938C145.266 28.0609 145.366 28.3728 145.565 28.6242C145.764 28.8757 145.964 29.1021 146.163 29.3032C146.527 29.5698 146.712 29.8213 146.712 30.0577C146.712 30.4248 146.527 30.7266 146.163 30.963C145.964 31.2296 145.864 31.466 145.864 31.6671L145.859 31.6873Z" fill="black"/>
<path d="M163.762 33.7993C162.929 33.7993 162.266 33.5579 161.767 33.07C161.268 32.5872 160.884 32.0037 160.62 31.3348C160.221 31.4002 159.857 31.3348 159.523 31.1336C159.189 30.9324 158.91 30.6809 158.675 30.3792C158.441 30.0774 158.266 29.7354 158.152 29.3481C158.037 28.9608 157.977 28.6037 157.977 28.2667C157.977 27.799 158.042 27.3514 158.177 26.9339C158.311 26.5165 158.476 26.104 158.675 25.7017C158.012 25.3345 157.638 24.9472 157.553 24.5449C157.469 24.1425 157.414 23.8759 157.379 23.7401C157.344 23.2372 157.429 22.7593 157.628 22.3067C157.828 21.854 158.077 21.4265 158.376 21.0241C158.211 20.6872 158.027 20.3099 157.828 19.8925C157.628 19.475 157.528 19.0626 157.528 18.6602C157.528 17.6543 157.818 16.915 158.401 16.4472C158.984 15.9795 159.658 15.5922 160.421 15.2904H160.52C160.555 15.2904 160.57 15.2753 160.57 15.2401C160.47 14.9031 160.421 14.5863 160.421 14.2845C160.386 13.5451 160.505 12.8863 160.77 12.2978C161.034 11.7094 161.358 11.2165 161.742 10.8141C162.126 10.4117 162.515 10.1099 162.914 9.90876C163.313 9.70758 163.647 9.60698 163.911 9.60698C164.509 9.47118 165.008 9.42089 165.407 9.45609C165.806 9.4913 166.13 9.56675 166.379 9.68243C166.629 9.79811 166.828 9.92385 166.978 10.0596C167.127 10.1954 167.252 10.2759 167.352 10.3111C168.384 9.27 169.73 8.75195 171.391 8.75195C172.453 8.75195 173.361 9.1342 174.109 9.89367C174.857 10.6531 175.415 11.5283 175.779 12.5091C176.143 11.9608 176.597 11.5333 177.13 11.2265C177.664 10.9197 178.297 10.7638 179.03 10.7638C179.195 10.7638 179.344 10.7789 179.479 10.8141C179.614 10.8493 179.763 10.8795 179.928 10.9147C180.392 10.2457 180.925 9.79308 181.529 9.55669C182.127 9.32533 182.845 9.20462 183.678 9.20462C184.71 9.20462 185.617 9.45609 186.4 9.95905C187.183 10.462 187.707 11.2517 187.976 12.323C188.575 12.0916 189.048 11.9206 189.402 11.82C189.751 11.7194 190.21 11.6691 190.779 11.6691C191.776 11.6691 192.559 11.9558 193.127 12.5241C193.696 13.0925 193.975 13.9173 193.975 14.9886C193.975 15.391 193.925 15.6928 193.825 15.894C193.79 15.9594 193.761 16.0549 193.726 16.1706C193.691 16.2863 193.676 16.3969 193.676 16.4975C194.199 16.5629 194.753 16.749 195.341 17.0508C195.925 17.3525 196.219 17.8404 196.219 18.5093C196.219 18.9771 196.094 19.3795 195.845 19.7165C195.596 20.0534 195.321 20.3854 195.022 20.7224C195.785 21.1247 196.329 21.6428 196.643 22.2815C196.957 22.9203 197.116 23.6546 197.116 24.4946C197.116 25.1635 197.017 25.8173 196.817 26.4561C196.618 27.0949 196.184 27.5978 195.521 27.965C195.785 28.5685 195.92 29.2073 195.92 29.8762C195.92 30.2786 195.86 30.696 195.745 31.1336C195.63 31.5712 195.461 31.9786 195.246 32.3659C195.032 32.7531 194.748 33.0599 194.399 33.2963C194.05 33.5327 193.641 33.6484 193.177 33.6484C192.514 33.6484 191.98 33.5327 191.581 33.2963C191.182 33.0599 190.898 32.894 190.734 32.7934C190.599 32.8588 190.425 32.9694 190.21 33.1203C189.996 33.2712 189.502 33.3466 188.739 33.3466C187.976 33.3466 187.233 33.1706 186.62 32.8185C186.006 32.4664 185.697 31.8227 185.697 30.8821C185.697 30.4144 185.787 29.9114 185.972 29.3733C186.156 28.8351 186.346 28.3673 186.545 27.965C185.682 27.4268 185.034 26.9088 184.6 26.4058C184.166 25.9028 183.952 25.1132 183.952 24.0419C183.952 23.5389 183.967 23.1265 184.002 22.8096C184.037 22.4928 184.141 22.1307 184.316 21.7283C183.922 21.7283 183.603 21.678 183.359 21.5774C183.114 21.4768 182.86 21.3108 182.601 21.0744L182.257 21.4768C182.157 21.6428 181.952 21.8943 181.633 22.2312C181.319 22.5682 181.075 22.7996 180.91 22.9354C180.975 23.1366 181.06 23.3227 181.16 23.4886C181.259 23.6546 181.344 23.8055 181.409 23.9413C181.573 24.2431 181.733 24.5549 181.883 24.8718C182.032 25.1886 182.107 25.5508 182.107 25.9531C182.107 26.7227 181.903 27.4469 181.494 28.1159C181.085 28.7848 180.556 29.3079 179.913 29.675C179.878 30.4144 179.639 31.0431 179.19 31.5611C178.741 32.0842 178.118 32.3407 177.32 32.3407C175.624 32.3407 174.403 31.9383 173.655 31.1336C172.907 30.3289 172.533 29.4236 172.533 28.4176C172.533 27.8141 172.598 27.3765 172.732 27.1099C172.867 26.8434 172.947 26.7076 172.982 26.7076C172.717 26.3052 172.508 25.9431 172.358 25.6262C172.209 25.3094 172.134 24.8818 172.134 24.3437C172.134 24.0771 172.194 23.8005 172.308 23.5138C172.423 23.2271 172.518 22.9505 172.583 22.6839L171.585 21.9798C171.321 21.7786 171.102 21.5522 170.937 21.3008C170.773 21.0493 170.623 20.7878 170.488 20.5212C170.154 20.7224 169.89 20.833 169.69 20.8481C169.491 20.8632 169.207 20.8733 168.843 20.8733C169.177 21.6478 169.351 22.4576 169.366 23.3126C169.381 24.1676 169.007 24.9824 168.244 25.752C168.509 26.2197 168.718 26.6221 168.868 26.9591C169.017 27.296 169.092 27.7286 169.092 28.2667C169.092 29.0363 168.853 29.6499 168.369 30.1025C167.885 30.5552 167.347 30.867 166.748 31.033C166.549 32.0037 166.215 32.7079 165.751 33.1454C165.287 33.583 164.619 33.7993 163.757 33.7993H163.762ZM161.717 30.3289C161.782 30.8972 161.991 31.4253 162.34 31.9132C162.689 32.4011 163.213 32.6425 163.911 32.6425C164.609 32.6425 165.073 32.3558 165.307 31.7875C165.542 31.2191 165.691 30.6307 165.756 30.0271C165.756 29.9265 165.806 29.8762 165.906 29.8762C166.439 29.9416 166.913 29.836 167.327 29.5493C167.741 29.2626 167.95 28.8351 167.95 28.2667C167.95 27.9298 167.865 27.623 167.701 27.3363C167.536 27.0496 167.352 26.773 167.152 26.5064C166.788 26.1392 166.604 25.8023 166.604 25.5005C166.604 25.3345 166.654 25.2088 166.753 25.1233C166.853 25.0378 166.988 24.9321 167.152 24.7963C167.352 24.6304 167.561 24.4091 167.776 24.1425C167.99 23.8759 168.1 23.4886 168.1 22.9857C168.1 22.4475 168 22.015 167.801 21.678C167.601 21.341 167.387 21.0392 167.152 20.7727C166.788 20.4055 166.604 20.0836 166.604 19.817C166.604 19.4147 166.803 19.2135 167.202 19.2135C167.402 19.2135 167.586 19.2386 167.751 19.2889C167.915 19.3392 168.085 19.3996 168.249 19.465C168.414 19.5304 168.574 19.5807 168.723 19.6159C168.873 19.6511 168.997 19.6662 169.097 19.6662C169.361 19.6662 169.571 19.6008 169.72 19.465C169.87 19.3292 170.03 19.1783 170.194 19.0123C170.429 18.6753 170.678 18.5093 170.942 18.5093C171.206 18.5093 171.391 18.6502 171.491 18.9369C171.59 19.2236 171.655 19.5002 171.69 19.7667C171.79 20.2345 171.964 20.5866 172.214 20.823C172.463 21.0594 172.822 21.341 173.286 21.678C173.45 21.844 173.61 21.9949 173.76 22.1307C173.909 22.2665 173.984 22.4173 173.984 22.5833C173.984 22.7845 173.944 22.9505 173.859 23.0863C173.774 23.2221 173.685 23.3528 173.585 23.4886C173.52 23.6244 173.45 23.7753 173.386 23.9413C173.321 24.1073 173.286 24.2934 173.286 24.4946C173.286 24.7963 173.371 25.0378 173.535 25.2238C173.7 25.4099 173.869 25.586 174.034 25.752C174.398 26.0185 174.582 26.27 174.582 26.5064C174.582 26.6724 174.542 26.8082 174.458 26.9088C174.373 27.0093 174.283 27.1451 174.183 27.3111C174.049 27.4771 173.934 27.6481 173.834 27.8141C173.735 27.9801 173.685 28.1812 173.685 28.4176C173.685 28.654 173.725 28.9307 173.809 29.2475C173.894 29.5644 174.059 29.8662 174.308 30.1528C174.557 30.4395 174.921 30.6809 175.405 30.8821C175.889 31.0833 176.527 31.1688 177.325 31.1336C177.524 31.1336 177.774 31.0682 178.073 30.9324C178.372 30.7966 178.557 30.4949 178.621 30.0271C178.621 29.8913 178.606 29.7756 178.572 29.675C178.537 29.5744 178.512 29.4738 178.497 29.3733C178.482 29.2727 178.472 29.1369 178.472 28.9709C178.507 28.9357 178.557 28.9055 178.621 28.8703C178.686 28.8351 178.736 28.8049 178.771 28.7697C178.806 28.7345 178.856 28.6842 178.921 28.6188C179.085 28.5534 179.285 28.4528 179.519 28.317C179.753 28.1812 179.968 28.0153 180.167 27.8141C180.367 27.6129 180.541 27.3614 180.691 27.0596C180.84 26.7579 180.915 26.3907 180.915 25.9531C180.915 25.586 180.805 25.2339 180.591 24.8969C180.377 24.5599 180.167 24.2582 179.968 23.9916C179.803 23.725 179.654 23.4886 179.519 23.2875C179.384 23.0863 179.32 22.9002 179.32 22.7342C179.32 22.4978 179.554 22.2312 180.018 21.9295C180.382 21.6277 180.776 21.2354 181.189 20.7475C181.603 20.2647 181.813 19.5153 181.813 18.5093C181.813 18.4088 181.863 18.3585 181.962 18.3585H182.262C182.526 18.3585 182.71 18.444 182.81 18.6099C182.91 18.7759 182.995 18.9771 183.059 19.2135C183.124 19.4801 183.244 19.7517 183.408 20.0182C183.573 20.2848 183.922 20.4206 184.456 20.4206L185.553 20.2697C185.852 20.2697 186.026 20.2848 186.076 20.32C186.126 20.3552 186.151 20.486 186.151 20.7224C186.151 20.9236 186.086 21.165 185.952 21.4517C185.817 21.7383 185.652 22.0301 185.453 22.3318C185.288 22.5984 185.194 22.9002 185.179 23.2372C185.164 23.5741 185.154 23.891 185.154 24.1928C185.154 24.6605 185.229 25.0378 185.378 25.3244C185.528 25.6111 185.712 25.8525 185.927 26.0537C186.141 26.2549 186.375 26.4159 186.625 26.5315C186.874 26.6472 187.113 26.7579 187.348 26.8585C187.612 26.9591 187.846 27.0747 188.046 27.2105C188.245 27.3463 188.345 27.4972 188.345 27.6632V27.965C188.345 28.0002 188.33 28.0304 188.295 28.0656C187.861 28.4327 187.522 28.8552 187.273 29.323C187.024 29.7907 186.899 30.3138 186.899 30.8821C186.899 31.4203 187.098 31.7724 187.497 31.9383C187.896 32.1043 188.33 32.1898 188.794 32.1898C189.058 32.1898 189.308 32.1546 189.542 32.0892C189.776 32.0238 189.976 31.9031 190.14 31.7372C190.205 31.6366 190.305 31.536 190.439 31.4354C190.574 31.3348 190.739 31.2845 190.938 31.2845C191.003 31.2845 191.038 31.2996 191.038 31.3348C191.302 31.702 191.596 31.9886 191.911 32.1898C192.225 32.391 192.619 32.4916 193.082 32.4916C193.681 32.4916 194.12 32.1898 194.404 31.5863C194.688 30.9827 194.828 30.4144 194.828 29.8812C194.828 29.6147 194.778 29.3733 194.678 29.152C194.578 28.9357 194.464 28.7244 194.329 28.5233H194.379C194.115 28.1561 193.98 27.8191 193.98 27.5173C193.98 27.3514 194.07 27.2105 194.249 27.0898C194.429 26.9741 194.613 26.8786 194.808 26.8132C195.261 26.5818 195.561 26.3052 195.705 25.9883C195.85 25.6715 195.925 25.1786 195.925 24.5096C195.925 23.8407 195.825 23.3126 195.625 22.9304C195.426 22.5481 194.992 22.186 194.329 21.854C194.03 21.7182 193.765 21.5875 193.531 21.4517C193.297 21.3159 193.182 21.1197 193.182 20.8481C193.182 20.6117 193.272 20.4206 193.456 20.2697C193.641 20.1188 193.845 19.9629 194.08 19.7919C194.279 19.6259 194.489 19.465 194.703 19.3141C194.917 19.1632 195.027 18.957 195.027 18.6854C195.027 18.4138 194.887 18.2076 194.603 18.0567C194.319 17.9058 194.095 17.8304 193.93 17.8304H193.581C193.416 17.8304 193.267 17.8153 193.132 17.7801C192.968 17.7449 192.768 17.7197 192.534 17.7046C192.299 17.6895 192.185 17.5286 192.185 17.2268C192.185 17.0256 192.22 16.8446 192.284 16.6736C192.349 16.5076 192.419 16.3366 192.484 16.1706C192.549 16.0046 192.619 15.8386 192.683 15.6676C192.748 15.5017 192.783 15.3357 192.783 15.1647C192.783 14.9635 192.768 14.7372 192.733 14.4907C192.698 14.2392 192.619 14.0079 192.484 13.7866C192.349 13.5703 192.155 13.3691 191.891 13.183C191.626 12.9969 191.247 12.8913 190.754 12.8561C190.29 12.8209 189.881 12.8662 189.517 12.9818C189.153 13.0975 188.744 13.3591 188.28 13.7614C188.181 13.9274 188.066 14.0883 187.931 14.2392C187.797 14.3901 187.632 14.4656 187.438 14.4656C187.338 14.4656 187.213 14.4555 187.064 14.4404C186.914 14.4253 186.839 14.3348 186.839 14.1638C186.774 13.6256 186.7 13.1227 186.615 12.6449C186.53 12.167 186.39 11.7596 186.191 11.4176C185.991 11.0756 185.702 10.8091 185.318 10.623C184.934 10.4369 184.396 10.3413 183.693 10.3413C183.394 10.3413 183.024 10.3815 182.591 10.467C182.157 10.5525 181.743 10.8593 181.344 11.3975C181.179 11.6641 181.02 11.9005 180.87 12.1017C180.721 12.3028 180.561 12.4034 180.397 12.4034C180.162 12.4034 179.913 12.338 179.649 12.2022C179.449 12.1369 179.315 12.0866 179.25 12.0514L179.05 11.9508C178.183 11.9508 177.584 12.1922 177.25 12.6801C176.916 13.1679 176.682 13.5954 176.552 13.9626C176.452 14.2292 176.357 14.4404 176.278 14.5913C176.193 14.7422 176.068 14.8176 175.904 14.8176C175.704 14.8176 175.53 14.6768 175.38 14.3901C175.231 14.1034 175.056 13.7765 174.857 13.4093C174.692 13.0724 174.517 12.6951 174.333 12.2777C174.148 11.8602 173.924 11.473 173.66 11.1209C173.395 10.7688 173.076 10.4771 172.712 10.2407C172.348 10.0043 171.914 9.88864 171.416 9.88864C170.718 9.88864 170.109 9.98923 169.591 10.1904C169.072 10.3916 168.583 10.7789 168.115 11.3472C168.015 11.483 167.905 11.6138 167.791 11.7496C167.676 11.8854 167.531 11.9508 167.367 11.9508L167.267 11.9005C166.968 11.5987 166.649 11.312 166.32 11.0454C165.986 10.7789 165.602 10.6431 165.173 10.6431C164.205 10.6431 163.393 10.9549 162.724 11.5736C162.056 12.1922 161.727 12.9919 161.727 13.9626C161.727 14.2292 161.752 14.5058 161.802 14.7925C161.852 15.0792 161.877 15.386 161.877 15.723C161.877 15.8236 161.862 15.9241 161.827 16.0247C161.792 16.1253 161.677 16.2259 161.478 16.3265C160.814 16.3919 160.191 16.6031 159.608 16.9552C159.024 17.3073 158.735 17.8706 158.735 18.6401C158.735 19.1079 158.85 19.5555 159.084 19.973C159.319 20.3904 159.568 20.7878 159.832 21.1549C159.897 21.2203 159.897 21.2907 159.832 21.3561L159.433 21.7082C159.169 21.9094 158.959 22.1256 158.81 22.362C158.66 22.5984 158.585 22.9002 158.585 23.2673C158.585 23.6697 158.695 23.9815 158.91 24.1978C159.124 24.4141 159.368 24.6102 159.633 24.7762C159.832 24.912 159.997 25.0428 160.131 25.1786C160.266 25.3144 160.331 25.5156 160.331 25.7821C160.331 25.8173 160.316 25.8475 160.281 25.8827C159.847 26.2197 159.548 26.5718 159.383 26.9389C159.219 27.3061 159.134 27.7437 159.134 28.2466C159.134 28.5836 159.259 28.9659 159.508 29.4034C159.757 29.841 160.116 30.0925 160.58 30.1579C160.645 30.1227 160.765 30.0925 160.929 30.0573C161.094 30.0221 161.228 30.007 161.328 30.007L161.627 30.1579L161.727 30.3088L161.717 30.3289Z" fill="black"/>
<path d="M211.402 32.7432C210.505 32.7432 209.667 32.5169 208.889 32.0642C208.111 31.6115 207.388 31.0985 206.725 30.5302C206.461 30.5302 206.202 30.5704 205.952 30.6559C205.703 30.7414 205.414 30.7816 205.08 30.7816C204.317 30.7816 203.618 30.6308 202.99 30.329C202.362 30.0272 201.813 29.6148 201.35 29.0967C200.886 28.5787 200.522 27.9802 200.258 27.3112C199.993 26.6423 199.859 25.918 199.859 25.1485C199.859 24.9825 199.874 24.8316 199.908 24.6958C199.943 24.56 199.973 24.4092 200.008 24.2432C199.21 23.9414 198.552 23.4384 198.039 22.7343C197.525 22.0302 197.266 21.2405 197.266 20.3704C197.266 19.3293 197.48 18.4189 197.914 17.6293C198.348 16.8396 198.996 16.2612 199.859 15.8941C199.659 14.7876 199.709 13.8068 200.008 12.9518C200.307 12.0967 200.771 11.4026 201.399 10.8645C202.028 10.3263 202.766 9.96922 203.613 9.78312C204.461 9.59703 205.314 9.62218 206.177 9.85857C206.541 9.11922 206.954 8.55087 207.418 8.14851C207.882 7.74614 208.341 7.45945 208.785 7.29348C209.233 7.1275 209.637 7.02691 210.001 6.9917C210.365 6.95649 210.63 6.94141 210.799 6.94141C212.425 6.94141 213.636 7.28342 214.429 7.97247C215.227 8.66152 215.791 9.42099 216.12 10.2609C216.848 10.2609 217.556 10.3263 218.234 10.4621C218.912 10.5979 219.521 10.8293 220.049 11.1663C220.578 11.5032 221.002 11.9609 221.316 12.5494C221.63 13.1379 221.789 13.8822 221.789 14.7876C221.789 15.0893 221.755 15.366 221.69 15.6174C221.625 15.8689 221.555 16.1103 221.49 16.3467C221.425 16.5831 221.356 16.7994 221.291 17.0006C221.226 17.2018 221.191 17.4029 221.191 17.6041C221.191 17.6695 221.256 17.755 221.395 17.8556C221.53 17.9562 221.685 18.092 221.854 18.258C222.293 18.6251 222.762 19.0979 223.25 19.6663C223.739 20.2346 223.988 20.9086 223.988 21.6781C223.988 22.2163 223.894 22.674 223.709 23.0612C223.525 23.4485 223.285 23.7805 222.996 24.0671C222.707 24.3538 222.373 24.6053 221.984 24.8216C221.595 25.0379 221.196 25.2491 220.797 25.4503C220.997 25.9532 221.096 26.421 221.096 26.8586C221.096 27.3967 220.987 27.8796 220.772 28.3171C220.558 28.7547 220.259 29.1068 219.875 29.3734C219.491 29.6399 219.047 29.8361 218.533 29.9518C218.02 30.0674 217.481 30.0775 216.918 29.9769C216.12 30.9174 215.307 31.6115 214.479 32.0642C213.651 32.5169 212.624 32.7432 211.392 32.7432H211.402ZM206.944 29.0716C207.244 29.0716 207.483 29.1873 207.668 29.4237C207.852 29.66 207.977 29.8763 208.042 30.0775C208.042 30.1127 208.052 30.1429 208.066 30.1781C208.081 30.2133 208.091 30.2435 208.091 30.2787C208.555 30.6458 209.129 30.9476 209.812 31.184C210.495 31.4204 211.133 31.5361 211.732 31.5361C212.395 31.5361 213.003 31.4003 213.552 31.1337C214.1 30.8671 214.659 30.5453 215.222 30.1781C215.422 30.0423 215.556 29.8914 215.621 29.7254C215.686 29.5595 215.746 29.3985 215.796 29.2476C215.845 29.0967 215.905 28.9609 215.97 28.8453C216.035 28.7296 216.155 28.6692 216.319 28.6692C216.484 28.6692 216.668 28.6893 216.868 28.7195C217.067 28.7547 217.331 28.7698 217.666 28.7698C218.229 28.7698 218.728 28.6038 219.162 28.2669C219.595 27.9299 219.81 27.4118 219.81 26.7077C219.81 26.4713 219.77 26.2299 219.685 25.9784C219.6 25.7269 219.526 25.5358 219.461 25.4C219.296 25.0328 219.301 24.7914 219.486 24.6707C219.67 24.555 219.944 24.4092 220.308 24.2432C220.842 24.0068 221.39 23.7151 221.954 23.363C222.517 23.0109 222.802 22.4476 222.802 21.6781C222.802 20.974 222.542 20.3855 222.029 19.9177C221.515 19.45 221.021 19.0476 220.558 18.7106C220.293 18.5447 220.074 18.3938 219.909 18.258C219.745 18.1222 219.66 18.0065 219.66 17.9059C219.66 17.6695 219.755 17.3677 219.944 17.0006C220.104 16.6988 220.254 16.3719 220.393 16.0198C220.533 15.6677 220.608 15.3056 220.608 14.9384C220.608 14.1337 220.448 13.505 220.134 13.0524C219.82 12.5997 219.431 12.2577 218.967 12.0213C218.503 11.7849 218.02 11.6441 217.526 11.5938C217.027 11.5435 216.578 11.5183 216.185 11.5183C215.457 11.5183 215.058 11.4177 214.993 11.2166L214.743 10.5124C214.579 10.0095 214.32 9.60709 213.971 9.30531C213.621 9.00354 213.257 8.76212 212.878 8.57602C212.495 8.38993 212.126 8.27425 211.761 8.22395C211.397 8.17365 211.133 8.14851 210.964 8.14851C210.5 8.14851 210.036 8.1988 209.572 8.29939C209.109 8.39999 208.695 8.57099 208.331 8.80235C208.166 8.96833 207.997 9.16448 207.832 9.38076C207.668 9.59703 207.533 9.89377 207.433 10.2609C207.368 10.5627 207.299 10.8293 207.234 11.0657C207.169 11.3021 207.049 11.4177 206.885 11.4177C206.62 11.4177 206.451 11.3775 206.386 11.292C206.321 11.2065 206.202 11.1311 206.037 11.0657C205.872 11.0003 205.653 10.95 205.389 10.9148C205.124 10.8796 204.825 10.8645 204.491 10.8645C203.429 10.8645 202.591 11.2518 201.978 12.0213C201.365 12.7908 201.055 13.666 201.055 14.6367C201.055 14.7373 201.065 14.8731 201.08 15.039C201.095 15.205 201.105 15.3408 201.105 15.4414C201.14 15.542 201.155 15.6677 201.155 15.8186V16.5479L201.105 16.6485C201.04 16.7491 200.951 16.8145 200.836 16.8497C200.721 16.8849 200.617 16.9151 200.517 16.9503C200.193 17.0157 200.013 17.066 199.978 17.1012C199.425 17.5689 199.031 18.0316 198.801 18.4843C198.572 18.937 198.457 19.5657 198.457 20.3704C198.457 21.0745 198.712 21.6278 199.215 22.0302C199.719 22.4325 200.188 22.7695 200.612 23.0361C200.871 23.2021 201.075 23.3379 201.225 23.4384C201.375 23.539 201.449 23.6748 201.449 23.8408C201.449 24.0068 201.424 24.1577 201.375 24.2935C201.325 24.4293 201.265 24.545 201.2 24.6455C201.1 24.8467 201.05 25.063 201.05 25.2994C201.05 25.8677 201.15 26.416 201.35 26.934C201.549 27.4521 201.823 27.9148 202.172 28.3171C202.521 28.7195 202.945 29.0464 203.444 29.2979C203.943 29.5494 204.491 29.6751 205.089 29.6751C205.189 29.6751 205.314 29.6399 205.463 29.5745C205.613 29.5092 205.773 29.4387 205.937 29.3734C206.072 29.308 206.226 29.2376 206.411 29.1722C206.595 29.1068 206.77 29.0716 206.935 29.0716H206.944Z" fill="black"/>
<path d="M205.219 19.2431C205.809 19.2431 206.287 18.5766 206.287 17.7544C206.287 16.9322 205.809 16.2656 205.219 16.2656C204.63 16.2656 204.152 16.9322 204.152 17.7544C204.152 18.5766 204.63 19.2431 205.219 19.2431Z" fill="black"/>
<path d="M212.305 19.2431C212.895 19.2431 213.373 18.5766 213.373 17.7544C213.373 16.9322 212.895 16.2656 212.305 16.2656C211.716 16.2656 211.238 16.9322 211.238 17.7544C211.238 18.5766 211.716 19.2431 212.305 19.2431Z" fill="black"/>
<path d="M205.383 21.6785C207.238 22.6291 209.687 22.6291 211.537 21.6785C211.891 21.4975 211.996 20.9945 211.801 20.6575C211.592 20.2954 211.148 20.2049 210.789 20.391C210.759 20.406 210.549 20.5016 210.714 20.4312C210.629 20.4664 210.545 20.5016 210.455 20.5318C210.245 20.6072 210.031 20.6676 209.816 20.7229C209.368 20.8336 208.914 20.8989 208.45 20.8989C207.986 20.8989 207.538 20.8336 207.089 20.7229C206.874 20.6676 206.66 20.6072 206.456 20.5318C206.371 20.5016 206.281 20.4714 206.201 20.4312C206.366 20.5016 206.161 20.406 206.126 20.391C205.772 20.2099 205.324 20.2954 205.114 20.6575C204.92 20.9895 205.024 21.4924 205.378 21.6785H205.383Z" fill="black"/>
</g>
<defs>
<clipPath id="clip0_611_5491">
<rect width="106.985" height="34" fill="white"/>
</clipPath>
<clipPath id="clip1_611_5491">
<rect width="108.657" height="34" fill="white" transform="translate(115.342)"/>
</clipPath>
</defs>
</svg>
