<svg width="24" height="24" viewBox="0 0 24 24" fill="none" xmlns="http://www.w3.org/2000/svg">
<path d="M3 6.2V17.8C3 18.92 3 19.48 3.218 19.907C3.41 20.284 3.715 20.59 4.092 20.782C4.519 21 5.079 21 6.197 21H17.803C18.921 21 19.48 21 19.907 20.782C20.2838 20.5902 20.5902 20.2838 20.782 19.907C21 19.48 21 18.921 21 17.803V6.197C21 5.079 21 4.519 20.782 4.092C20.5899 3.71558 20.2836 3.40963 19.907 3.218C19.48 3 18.92 3 17.8 3H6.2C5.08 3 4.52 3 4.092 3.218C3.71565 3.40969 3.40969 3.71565 3.218 4.092C3 4.52 3 5.08 3 6.2Z" stroke="#9E9E9E" stroke-width="2" stroke-linecap="round" stroke-linejoin="round"/>
</svg>
